<?xml version="1.0" encoding="UTF-8" standalone="no"?>
<!DOCTYPE svg PUBLIC "-//W3C//DTD SVG 1.1//EN"
 "http://www.w3.org/Graphics/SVG/1.1/DTD/svg11.dtd">
<!-- Generated by graphviz version 8.0.5 (20230430.1635)
 -->
<!-- Title: dependency&#45;cruiser output Pages: 1 -->
<svg width="640pt" height="240pt"
 viewBox="0.00 0.00 639.75 240.00" xmlns="http://www.w3.org/2000/svg" xmlns:xlink="http://www.w3.org/1999/xlink">
<g id="graph0" class="graph" transform="scale(1 1) rotate(0) translate(4 236)">
<title>dependency&#45;cruiser output</title>
<polygon fill="white" stroke="none" points="-4,4 -4,-236 635.75,-236 635.75,4 -4,4"/>
<g id="clust1" class="cluster">
<title>cluster_src</title>
<path fill="#ffffff" stroke="black" stroke-width="2" d="M20,-8C20,-8 611.75,-8 611.75,-8 617.75,-8 623.75,-14 623.75,-20 623.75,-20 623.75,-212 623.75,-212 623.75,-218 617.75,-224 611.75,-224 611.75,-224 20,-224 20,-224 14,-224 8,-218 8,-212 8,-212 8,-20 8,-20 8,-14 14,-8 20,-8"/>
<text text-anchor="middle" x="315.88" y="-211.45" font-family="Helvetica,sans-Serif" font-weight="bold" font-size="9.00">src</text>
</g>
<g id="clust2" class="cluster">
<title>cluster_src/archive</title>
<path fill="#ffffff" stroke="black" stroke-width="2" d="M28,-121C28,-121 74,-121 74,-121 80,-121 86,-127 86,-133 86,-133 86,-161 86,-161 86,-167 80,-173 74,-173 74,-173 28,-173 28,-173 22,-173 16,-167 16,-161 16,-161 16,-133 16,-133 16,-127 22,-121 28,-121"/>
<text text-anchor="middle" x="51" y="-160.45" font-family="Helvetica,sans-Serif" font-weight="bold" font-size="9.00">archive</text>
</g>
<g id="clust3" class="cluster">
<title>cluster_src/routes</title>
<path fill="#ffffff" stroke="black" stroke-width="2" d="M106,-26C106,-26 313.25,-26 313.25,-26 319.25,-26 325.25,-32 325.25,-38 325.25,-38 325.25,-186 325.25,-186 325.25,-192 319.25,-198 313.25,-198 313.25,-198 106,-198 106,-198 100,-198 94,-192 94,-186 94,-186 94,-38 94,-38 94,-32 100,-26 106,-26"/>
<text text-anchor="middle" x="209.62" y="-185.45" font-family="Helvetica,sans-Serif" font-weight="bold" font-size="9.00">routes</text>
</g>
<g id="clust4" class="cluster">
<title>cluster_src/types</title>
<path fill="#ffffff" stroke="black" stroke-width="2" d="M353.25,-71C353.25,-71 473.25,-71 473.25,-71 479.25,-71 485.25,-77 485.25,-83 485.25,-83 485.25,-171 485.25,-171 485.25,-177 479.25,-183 473.25,-183 473.25,-183 353.25,-183 353.25,-183 347.25,-183 341.25,-177 341.25,-171 341.25,-171 341.25,-83 341.25,-83 341.25,-77 347.25,-71 353.25,-71"/>
<text text-anchor="middle" x="413.25" y="-170.45" font-family="Helvetica,sans-Serif" font-weight="bold" font-size="9.00">types</text>
</g>
<g id="clust5" class="cluster">
<title>cluster_src/types/express&#45;serve&#45;static&#45;core</title>
<path fill="#ffffff" stroke="black" stroke-width="2" d="M361.25,-105C361.25,-105 465.25,-105 465.25,-105 471.25,-105 477.25,-111 477.25,-117 477.25,-117 477.25,-145 477.25,-145 477.25,-151 471.25,-157 465.25,-157 465.25,-157 361.25,-157 361.25,-157 355.25,-157 349.25,-151 349.25,-145 349.25,-145 349.25,-117 349.25,-117 349.25,-111 355.25,-105 361.25,-105"/>
<text text-anchor="middle" x="413.25" y="-144.45" font-family="Helvetica,sans-Serif" font-weight="bold" font-size="9.00">express&#45;serve&#45;static&#45;core</text>
</g>
<!-- src/ServerStatusManager.ts -->
<g id="node1" class="node">
<title>src/ServerStatusManager.ts</title>
<g id="a_node1"><a xlink:href="src/ServerStatusManager.ts" xlink:title="ServerStatusManager.ts">
<path fill="#ddfeff" stroke="black" d="M609.83,-62.88C609.83,-62.88 507.42,-62.88 507.42,-62.88 504.46,-62.88 501.5,-59.92 501.5,-56.96 501.5,-56.96 501.5,-51.04 501.5,-51.04 501.5,-48.08 504.46,-45.12 507.42,-45.12 507.42,-45.12 609.83,-45.12 609.83,-45.12 612.79,-45.12 615.75,-48.08 615.75,-51.04 615.75,-51.04 615.75,-56.96 615.75,-56.96 615.75,-59.92 612.79,-62.88 609.83,-62.88"/>
<text text-anchor="start" x="509.5" y="-50.33" font-family="Helvetica,sans-Serif" font-size="9.00">ServerStatusManager.ts</text>
</a>
</g>
</g>
<!-- src/archive/scrap.ts -->
<g id="node2" class="node">
<title>src/archive/scrap.ts</title>
<g id="a_node2"><a xlink:href="src/archive/scrap.ts" xlink:title="no&#45;orphans">
<path fill="#ccffcc" stroke="orange" d="M72.08,-146.88C72.08,-146.88 29.92,-146.88 29.92,-146.88 26.96,-146.88 24,-143.92 24,-140.96 24,-140.96 24,-135.04 24,-135.04 24,-132.08 26.96,-129.12 29.92,-129.12 29.92,-129.12 72.08,-129.12 72.08,-129.12 75.04,-129.12 78,-132.08 78,-135.04 78,-135.04 78,-140.96 78,-140.96 78,-143.92 75.04,-146.88 72.08,-146.88"/>
<text text-anchor="start" x="35.25" y="-134.32" font-family="Helvetica,sans-Serif" font-size="9.00" fill="orange">scrap.ts</text>
</a>
</g>
</g>
<!-- src/complexUtils.ts -->
<g id="node3" class="node">
<title>src/complexUtils.ts</title>
<g id="a_node3"><a xlink:href="src/complexUtils.ts" xlink:title="complexUtils.ts">
<path fill="#ddfeff" stroke="black" d="M445.58,-62.88C445.58,-62.88 379.92,-62.88 379.92,-62.88 376.96,-62.88 374,-59.92 374,-56.96 374,-56.96 374,-51.04 374,-51.04 374,-48.08 376.96,-45.12 379.92,-45.12 379.92,-45.12 445.58,-45.12 445.58,-45.12 448.54,-45.12 451.5,-48.08 451.5,-51.04 451.5,-51.04 451.5,-56.96 451.5,-56.96 451.5,-59.92 448.54,-62.88 445.58,-62.88"/>
<text text-anchor="start" x="382" y="-50.33" font-family="Helvetica,sans-Serif" font-size="9.00">complexUtils.ts</text>
</a>
</g>
</g>
<!-- src/complexUtils.ts&#45;&gt;src/ServerStatusManager.ts -->
<g id="edge1" class="edge">
<title>src/complexUtils.ts&#45;&gt;src/ServerStatusManager.ts</title>
<path fill="none" stroke="#000000" stroke-width="2" stroke-opacity="0.200000" d="M451.93,-54C464.29,-54 478.37,-54 492.13,-54"/>
<polygon fill="#000000" fill-opacity="0.200000" stroke="#000000" stroke-width="2" stroke-opacity="0.200000" points="492.11,-56.1 498.11,-54 492.11,-51.9 492.11,-56.1"/>
</g>
<!-- src/index.ts -->
<g id="node4" class="node">
<title>src/index.ts</title>
<g id="a_node4"><a xlink:href="src/index.ts" xlink:title="index.ts">
<path fill="#ddfeff" stroke="black" d="M72.08,-84.88C72.08,-84.88 29.92,-84.88 29.92,-84.88 26.96,-84.88 24,-81.92 24,-78.96 24,-78.96 24,-73.04 24,-73.04 24,-70.08 26.96,-67.12 29.92,-67.12 29.92,-67.12 72.08,-67.12 72.08,-67.12 75.04,-67.12 78,-70.08 78,-73.04 78,-73.04 78,-78.96 78,-78.96 78,-81.92 75.04,-84.88 72.08,-84.88"/>
<text text-anchor="start" x="35.25" y="-72.33" font-family="Helvetica,sans-Serif" font-size="9.00">index.ts</text>
</a>
</g>
</g>
<!-- src/index.ts&#45;&gt;src/ServerStatusManager.ts -->
<g id="edge3" class="edge">
<title>src/index.ts&#45;&gt;src/ServerStatusManager.ts</title>
<path fill="none" stroke="#000000" stroke-width="2" stroke-opacity="0.200000" d="M69.86,-66.71C75.75,-62.87 81.85,-57.91 86,-52 93.69,-41.06 83.58,-31.38 94,-23 133.76,8.96 157.61,-17 208.62,-17 208.62,-17 208.62,-17 291.25,-17 367.32,-17 454.46,-31.99 507.77,-42.88"/>
<polygon fill="#000000" fill-opacity="0.200000" stroke="#000000" stroke-width="2" stroke-opacity="0.200000" points="508.04,-45.5 514.35,-44.66 508.9,-41.39 508.04,-45.5"/>
</g>
<!-- src/routes/index.ts -->
<g id="node5" class="node">
<title>src/routes/index.ts</title>
<g id="a_node5"><a xlink:href="src/routes/index.ts" xlink:title="index.ts">
<path fill="#ddfeff" stroke="black" d="M150.08,-95.88C150.08,-95.88 107.92,-95.88 107.92,-95.88 104.96,-95.88 102,-92.92 102,-89.96 102,-89.96 102,-84.04 102,-84.04 102,-81.08 104.96,-78.12 107.92,-78.12 107.92,-78.12 150.08,-78.12 150.08,-78.12 153.04,-78.12 156,-81.08 156,-84.04 156,-84.04 156,-89.96 156,-89.96 156,-92.92 153.04,-95.88 150.08,-95.88"/>
<text text-anchor="start" x="113.25" y="-83.33" font-family="Helvetica,sans-Serif" font-size="9.00">index.ts</text>
</a>
</g>
</g>
<!-- src/index.ts&#45;&gt;src/routes/index.ts -->
<g id="edge2" class="edge">
<title>src/index.ts&#45;&gt;src/routes/index.ts</title>
<path fill="none" stroke="#000000" stroke-width="2" stroke-opacity="0.200000" d="M78.15,-79.79C82.88,-80.47 87.87,-81.19 92.8,-81.91"/>
<polygon fill="#000000" fill-opacity="0.200000" stroke="#000000" stroke-width="2" stroke-opacity="0.200000" points="93.3,-84.39 99.54,-83.17 93.9,-80.23 93.3,-84.39"/>
</g>
<!-- src/routes/BadCompany.ts -->
<g id="node6" class="node">
<title>src/routes/BadCompany.ts</title>
<g id="a_node6"><a xlink:href="src/routes/BadCompany.ts" xlink:title="BadCompany.ts">
<path fill="#ddfeff" stroke="black" d="M244.33,-51.88C244.33,-51.88 174.92,-51.88 174.92,-51.88 171.96,-51.88 169,-48.92 169,-45.96 169,-45.96 169,-40.04 169,-40.04 169,-37.08 171.96,-34.12 174.92,-34.12 174.92,-34.12 244.33,-34.12 244.33,-34.12 247.29,-34.12 250.25,-37.08 250.25,-40.04 250.25,-40.04 250.25,-45.96 250.25,-45.96 250.25,-48.92 247.29,-51.88 244.33,-51.88"/>
<text text-anchor="start" x="177" y="-39.33" font-family="Helvetica,sans-Serif" font-size="9.00">BadCompany.ts</text>
</a>
</g>
</g>
<!-- src/routes/index.ts&#45;&gt;src/routes/BadCompany.ts -->
<g id="edge8" class="edge">
<title>src/routes/index.ts&#45;&gt;src/routes/BadCompany.ts</title>
<path fill="none" stroke="#000000" stroke-width="2" stroke-opacity="0.200000" d="M150.66,-77.72C152.54,-76.57 154.35,-75.33 156,-74 163.15,-68.27 161.57,-63.36 169,-58 169.65,-57.53 170.32,-57.07 171,-56.63"/>
<polygon fill="#000000" fill-opacity="0.200000" stroke="#000000" stroke-width="2" stroke-opacity="0.200000" points="172.51,-58.08 176.74,-53.33 170.47,-54.41 172.51,-58.08"/>
</g>
<!-- src/routes/Channel.ts -->
<g id="node7" class="node">
<title>src/routes/Channel.ts</title>
<g id="a_node7"><a xlink:href="src/routes/Channel.ts" xlink:title="Channel.ts">
<path fill="#ddfeff" stroke="black" d="M233.83,-81.88C233.83,-81.88 185.42,-81.88 185.42,-81.88 182.46,-81.88 179.5,-78.92 179.5,-75.96 179.5,-75.96 179.5,-70.04 179.5,-70.04 179.5,-67.08 182.46,-64.12 185.42,-64.12 185.42,-64.12 233.83,-64.12 233.83,-64.12 236.79,-64.12 239.75,-67.08 239.75,-70.04 239.75,-70.04 239.75,-75.96 239.75,-75.96 239.75,-78.92 236.79,-81.88 233.83,-81.88"/>
<text text-anchor="start" x="187.5" y="-69.33" font-family="Helvetica,sans-Serif" font-size="9.00">Channel.ts</text>
</a>
</g>
</g>
<!-- src/routes/index.ts&#45;&gt;src/routes/Channel.ts -->
<g id="edge9" class="edge">
<title>src/routes/index.ts&#45;&gt;src/routes/Channel.ts</title>
<path fill="none" stroke="#000000" stroke-width="2" stroke-opacity="0.200000" d="M156.18,-82.34C160.76,-81.52 165.61,-80.66 170.43,-79.8"/>
<polygon fill="#000000" fill-opacity="0.200000" stroke="#000000" stroke-width="2" stroke-opacity="0.200000" points="171.49,-81.39 177.03,-78.27 170.75,-77.25 171.49,-81.39"/>
</g>
<!-- src/routes/Directory.ts -->
<g id="node9" class="node">
<title>src/routes/Directory.ts</title>
<g id="a_node9"><a xlink:href="src/routes/Directory.ts" xlink:title="Directory.ts">
<path fill="#ddfeff" stroke="black" d="M234.58,-111.88C234.58,-111.88 184.67,-111.88 184.67,-111.88 181.71,-111.88 178.75,-108.92 178.75,-105.96 178.75,-105.96 178.75,-100.04 178.75,-100.04 178.75,-97.08 181.71,-94.12 184.67,-94.12 184.67,-94.12 234.58,-94.12 234.58,-94.12 237.54,-94.12 240.5,-97.08 240.5,-100.04 240.5,-100.04 240.5,-105.96 240.5,-105.96 240.5,-108.92 237.54,-111.88 234.58,-111.88"/>
<text text-anchor="start" x="186.75" y="-99.33" font-family="Helvetica,sans-Serif" font-size="9.00">Directory.ts</text>
</a>
</g>
</g>
<!-- src/routes/index.ts&#45;&gt;src/routes/Directory.ts -->
<g id="edge10" class="edge">
<title>src/routes/index.ts&#45;&gt;src/routes/Directory.ts</title>
<path fill="none" stroke="#000000" stroke-width="2" stroke-opacity="0.200000" d="M156.18,-92.33C160.54,-93.21 165.13,-94.15 169.73,-95.08"/>
<polygon fill="#000000" fill-opacity="0.200000" stroke="#000000" stroke-width="2" stroke-opacity="0.200000" points="170.18,-97.73 176.48,-96.87 171.02,-93.61 170.18,-97.73"/>
</g>
<!-- src/routes/IndexRouter.ts -->
<g id="node10" class="node">
<title>src/routes/IndexRouter.ts</title>
<g id="a_node10"><a xlink:href="src/routes/IndexRouter.ts" xlink:title="IndexRouter.ts">
<path fill="#ddfeff" stroke="black" d="M241.33,-141.88C241.33,-141.88 177.92,-141.88 177.92,-141.88 174.96,-141.88 172,-138.92 172,-135.96 172,-135.96 172,-130.04 172,-130.04 172,-127.08 174.96,-124.12 177.92,-124.12 177.92,-124.12 241.33,-124.12 241.33,-124.12 244.29,-124.12 247.25,-127.08 247.25,-130.04 247.25,-130.04 247.25,-135.96 247.25,-135.96 247.25,-138.92 244.29,-141.88 241.33,-141.88"/>
<text text-anchor="start" x="180" y="-129.32" font-family="Helvetica,sans-Serif" font-size="9.00">IndexRouter.ts</text>
</a>
</g>
</g>
<!-- src/routes/index.ts&#45;&gt;src/routes/IndexRouter.ts -->
<g id="edge11" class="edge">
<title>src/routes/index.ts&#45;&gt;src/routes/IndexRouter.ts</title>
<path fill="none" stroke="#000000" stroke-width="2" stroke-opacity="0.200000" d="M139.96,-96.36C147.49,-103.06 158.32,-111.93 169,-118 170.28,-118.72 171.59,-119.43 172.94,-120.11"/>
<polygon fill="#000000" fill-opacity="0.200000" stroke="#000000" stroke-width="2" stroke-opacity="0.200000" points="172.51,-122.14 178.84,-122.74 174.26,-118.33 172.51,-122.14"/>
</g>
<!-- src/routes/Url.ts -->
<g id="node11" class="node">
<title>src/routes/Url.ts</title>
<g id="a_node11"><a xlink:href="src/routes/Url.ts" xlink:title="Url.ts">
<path fill="#ddfeff" stroke="black" d="M230.71,-171.88C230.71,-171.88 188.54,-171.88 188.54,-171.88 185.58,-171.88 182.62,-168.92 182.62,-165.96 182.62,-165.96 182.62,-160.04 182.62,-160.04 182.62,-157.08 185.58,-154.12 188.54,-154.12 188.54,-154.12 230.71,-154.12 230.71,-154.12 233.67,-154.12 236.62,-157.08 236.62,-160.04 236.62,-160.04 236.62,-165.96 236.62,-165.96 236.62,-168.92 233.67,-171.88 230.71,-171.88"/>
<text text-anchor="start" x="199.12" y="-159.32" font-family="Helvetica,sans-Serif" font-size="9.00">Url.ts</text>
</a>
</g>
</g>
<!-- src/routes/index.ts&#45;&gt;src/routes/Url.ts -->
<g id="edge12" class="edge">
<title>src/routes/index.ts&#45;&gt;src/routes/Url.ts</title>
<path fill="none" stroke="#000000" stroke-width="2" stroke-opacity="0.200000" d="M133.63,-96.17C139.29,-109.38 151.43,-133.74 169,-148 170.7,-149.38 172.54,-150.64 174.46,-151.79"/>
<polygon fill="#000000" fill-opacity="0.200000" stroke="#000000" stroke-width="2" stroke-opacity="0.200000" points="173.88,-153.87 180.19,-154.71 175.79,-150.12 173.88,-153.87"/>
</g>
<!-- src/routes/utils.ts -->
<g id="node8" class="node">
<title>src/routes/utils.ts</title>
<g id="a_node8"><a xlink:href="src/routes/utils.ts" xlink:title="utils.ts">
<path fill="#ddfeff" stroke="black" d="M311.33,-111.88C311.33,-111.88 269.17,-111.88 269.17,-111.88 266.21,-111.88 263.25,-108.92 263.25,-105.96 263.25,-105.96 263.25,-100.04 263.25,-100.04 263.25,-97.08 266.21,-94.12 269.17,-94.12 269.17,-94.12 311.33,-94.12 311.33,-94.12 314.29,-94.12 317.25,-97.08 317.25,-100.04 317.25,-100.04 317.25,-105.96 317.25,-105.96 317.25,-108.92 314.29,-111.88 311.33,-111.88"/>
<text text-anchor="start" x="277.5" y="-99.33" font-family="Helvetica,sans-Serif" font-size="9.00">utils.ts</text>
</a>
</g>
</g>
<!-- src/routes/Channel.ts&#45;&gt;src/routes/utils.ts -->
<g id="edge4" class="edge">
<title>src/routes/Channel.ts&#45;&gt;src/routes/utils.ts</title>
<path fill="none" stroke="#000000" stroke-width="2" stroke-opacity="0.200000" d="M235.36,-82.34C240.3,-84.21 245.44,-86.16 250.25,-88 252.54,-88.87 254.9,-89.78 257.28,-90.69"/>
<polygon fill="#000000" fill-opacity="0.200000" stroke="#000000" stroke-width="2" stroke-opacity="0.200000" points="256.98,-92.59 263.33,-92.78 258.48,-88.67 256.98,-92.59"/>
</g>
<!-- src/routes/utils.ts&#45;&gt;src/complexUtils.ts -->
<g id="edge13" class="edge">
<title>src/routes/utils.ts&#45;&gt;src/complexUtils.ts</title>
<path fill="none" stroke="#000000" stroke-width="2" stroke-opacity="0.200000" d="M317.69,-94.68C320.37,-93.32 322.94,-91.77 325.25,-90 334.85,-82.65 331.06,-74.51 341.25,-68 348.35,-63.46 356.61,-60.34 364.93,-58.21"/>
<polygon fill="#000000" fill-opacity="0.200000" stroke="#000000" stroke-width="2" stroke-opacity="0.200000" points="366.15,-59.65 371.56,-56.33 365.25,-55.55 366.15,-59.65"/>
</g>
<!-- src/routes/Directory.ts&#45;&gt;src/routes/utils.ts -->
<g id="edge5" class="edge">
<title>src/routes/Directory.ts&#45;&gt;src/routes/utils.ts</title>
<path fill="none" stroke="#000000" stroke-width="2" stroke-opacity="0.200000" d="M240.8,-103C245.12,-103 249.59,-103 254,-103"/>
<polygon fill="#000000" fill-opacity="0.200000" stroke="#000000" stroke-width="2" stroke-opacity="0.200000" points="253.88,-105.1 259.88,-103 253.88,-100.9 253.88,-105.1"/>
</g>
<!-- src/routes/IndexRouter.ts&#45;&gt;src/routes/utils.ts -->
<g id="edge6" class="edge">
<title>src/routes/IndexRouter.ts&#45;&gt;src/routes/utils.ts</title>
<path fill="none" stroke="#000000" stroke-width="2" stroke-opacity="0.200000" d="M235.36,-123.66C240.3,-121.79 245.44,-119.84 250.25,-118 252.54,-117.13 254.9,-116.22 257.28,-115.31"/>
<polygon fill="#000000" fill-opacity="0.200000" stroke="#000000" stroke-width="2" stroke-opacity="0.200000" points="258.48,-117.33 263.33,-113.22 256.98,-113.41 258.48,-117.33"/>
</g>
<!-- src/routes/Url.ts&#45;&gt;src/routes/utils.ts -->
<g id="edge7" class="edge">
<title>src/routes/Url.ts&#45;&gt;src/routes/utils.ts</title>
<path fill="none" stroke="#000000" stroke-width="2" stroke-opacity="0.200000" d="M236.71,-155.24C241.43,-153.26 246.15,-150.86 250.25,-148 261.24,-140.33 271.11,-128.88 278.17,-119.45"/>
<polygon fill="#000000" fill-opacity="0.200000" stroke="#000000" stroke-width="2" stroke-opacity="0.200000" points="280.62,-120.24 282.4,-114.13 277.2,-117.79 280.62,-120.24"/>
</g>
<!-- src/test.ts -->
<g id="node12" class="node">
<title>src/test.ts</title>
<g id="a_node12"><a xlink:href="src/test.ts" xlink:title="no&#45;orphans">
<path fill="#ccffcc" stroke="orange" d="M72.08,-45.88C72.08,-45.88 29.92,-45.88 29.92,-45.88 26.96,-45.88 24,-42.92 24,-39.96 24,-39.96 24,-34.04 24,-34.04 24,-31.08 26.96,-28.12 29.92,-28.12 29.92,-28.12 72.08,-28.12 72.08,-28.12 75.04,-28.12 78,-31.08 78,-34.04 78,-34.04 78,-39.96 78,-39.96 78,-42.92 75.04,-45.88 72.08,-45.88"/>
<text text-anchor="start" x="39.38" y="-33.33" font-family="Helvetica,sans-Serif" font-size="9.00" fill="orange">test.ts</text>
</a>
</g>
</g>
<!-- src/types/express&#45;serve&#45;static&#45;core/index.d.ts -->
<g id="node13" class="node">
<title>src/types/express&#45;serve&#45;static&#45;core/index.d.ts</title>
<g id="a_node13"><a xlink:href="src/types/express-serve-static-core/index.d.ts" xlink:title="index.d.ts">
<path fill="#ddfeff" stroke="black" d="M434.33,-130.88C434.33,-130.88 391.17,-130.88 391.17,-130.88 388.21,-130.88 385.25,-127.92 385.25,-124.96 385.25,-124.96 385.25,-119.04 385.25,-119.04 385.25,-116.08 388.21,-113.12 391.17,-113.12 391.17,-113.12 434.33,-113.12 434.33,-113.12 437.29,-113.12 440.25,-116.08 440.25,-119.04 440.25,-119.04 440.25,-124.96 440.25,-124.96 440.25,-127.92 437.29,-130.88 434.33,-130.88"/>
<text text-anchor="start" x="393.25" y="-118.33" font-family="Helvetica,sans-Serif" font-size="9.00">index.d.ts</text>
</a>
</g>
</g>
<!-- src/types/express&#45;serve&#45;static&#45;core/index.d.ts&#45;&gt;src/ServerStatusManager.ts -->
<g id="edge14" class="edge">
<title>src/types/express&#45;serve&#45;static&#45;core/index.d.ts&#45;&gt;src/ServerStatusManager.ts</title>
<path fill="none" stroke="#000000" stroke-width="2" stroke-opacity="0.200000" d="M440.43,-120.14C454.26,-118.45 471.16,-115.2 485.25,-109 507.14,-99.36 528.48,-81.85 542.25,-69.18"/>
<polygon fill="#000000" fill-opacity="0.200000" stroke="#000000" stroke-width="2" stroke-opacity="0.200000" points="543.81,-70.7 546.72,-65.05 540.92,-67.65 543.81,-70.7"/>
</g>
<!-- src/types/types.d.ts -->
<g id="node14" class="node">
<title>src/types/types.d.ts</title>
<g id="a_node14"><a xlink:href="src/types/types.d.ts" xlink:title="types.d.ts">
<path fill="#ccffcc" stroke="black" d="M433.96,-96.88C433.96,-96.88 391.54,-96.88 391.54,-96.88 388.58,-96.88 385.62,-93.92 385.62,-90.96 385.62,-90.96 385.62,-85.04 385.62,-85.04 385.62,-82.08 388.58,-79.12 391.54,-79.12 391.54,-79.12 433.96,-79.12 433.96,-79.12 436.92,-79.12 439.88,-82.08 439.88,-85.04 439.88,-85.04 439.88,-90.96 439.88,-90.96 439.88,-93.92 436.92,-96.88 433.96,-96.88"/>
<text text-anchor="start" x="393.62" y="-84.33" font-family="Helvetica,sans-Serif" font-size="9.00">types.d.ts</text>
</a>
</g>
</g>
</g>
</svg>
