<?xml version="1.0" encoding="UTF-8" standalone="no"?>
<!DOCTYPE svg PUBLIC "-//W3C//DTD SVG 1.1//EN"
 "http://www.w3.org/Graphics/SVG/1.1/DTD/svg11.dtd">
<!-- Generated by graphviz version 8.0.5 (20230430.1635)
 -->
<!-- Title: dependency&#45;cruiser output Pages: 1 -->
<svg width="636pt" height="376pt"
 viewBox="0.00 0.00 636.00 376.00" xmlns="http://www.w3.org/2000/svg" xmlns:xlink="http://www.w3.org/1999/xlink">
<g id="graph0" class="graph" transform="scale(1 1) rotate(0) translate(4 372)">
<title>dependency&#45;cruiser output</title>
<polygon fill="white" stroke="none" points="-4,4 -4,-372 632,-372 632,4 -4,4"/>
<g id="clust1" class="cluster">
<title>cluster_src</title>
<path fill="#ffffff" stroke="black" stroke-width="2" d="M12,-8C12,-8 608,-8 608,-8 614,-8 620,-14 620,-20 620,-20 620,-348 620,-348 620,-354 614,-360 608,-360 608,-360 12,-360 12,-360 6,-360 0,-354 0,-348 0,-348 0,-20 0,-20 0,-14 6,-8 12,-8"/>
<text text-anchor="middle" x="310" y="-347.45" font-family="Helvetica,sans-Serif" font-weight="bold" font-size="9.00">src</text>
</g>
<g id="clust2" class="cluster">
<title>cluster_src/archive</title>
<path fill="#ffffff" stroke="black" stroke-width="2" d="M56.5,-282C56.5,-282 102.5,-282 102.5,-282 108.5,-282 114.5,-288 114.5,-294 114.5,-294 114.5,-322 114.5,-322 114.5,-328 108.5,-334 102.5,-334 102.5,-334 56.5,-334 56.5,-334 50.5,-334 44.5,-328 44.5,-322 44.5,-322 44.5,-294 44.5,-294 44.5,-288 50.5,-282 56.5,-282"/>
<text text-anchor="middle" x="79.5" y="-321.45" font-family="Helvetica,sans-Serif" font-weight="bold" font-size="9.00">archive</text>
</g>
<g id="clust3" class="cluster">
<title>cluster_src/routes</title>
<path fill="#ffffff" stroke="black" stroke-width="2" d="M180,-88C180,-88 387.25,-88 387.25,-88 393.25,-88 399.25,-94 399.25,-100 399.25,-100 399.25,-248 399.25,-248 399.25,-254 393.25,-260 387.25,-260 387.25,-260 180,-260 180,-260 174,-260 168,-254 168,-248 168,-248 168,-100 168,-100 168,-94 174,-88 180,-88"/>
<text text-anchor="middle" x="283.62" y="-247.45" font-family="Helvetica,sans-Serif" font-weight="bold" font-size="9.00">routes</text>
</g>
<g id="clust4" class="cluster">
<title>cluster_src/types</title>
<path fill="#ffffff" stroke="black" stroke-width="2" d="M20,-162C20,-162 140,-162 140,-162 146,-162 152,-168 152,-174 152,-174 152,-262 152,-262 152,-268 146,-274 140,-274 140,-274 20,-274 20,-274 14,-274 8,-268 8,-262 8,-262 8,-174 8,-174 8,-168 14,-162 20,-162"/>
<text text-anchor="middle" x="80" y="-261.45" font-family="Helvetica,sans-Serif" font-weight="bold" font-size="9.00">types</text>
</g>
<g id="clust5" class="cluster">
<title>cluster_src/types/express&#45;serve&#45;static&#45;core</title>
<path fill="#ffffff" stroke="black" stroke-width="2" d="M28,-196C28,-196 132,-196 132,-196 138,-196 144,-202 144,-208 144,-208 144,-236 144,-236 144,-242 138,-248 132,-248 132,-248 28,-248 28,-248 22,-248 16,-242 16,-236 16,-236 16,-208 16,-208 16,-202 22,-196 28,-196"/>
<text text-anchor="middle" x="80" y="-235.45" font-family="Helvetica,sans-Serif" font-weight="bold" font-size="9.00">express&#45;serve&#45;static&#45;core</text>
</g>
<!-- src/Discord.ts -->
<g id="node1" class="node">
<title>src/Discord.ts</title>
<g id="a_node1"><a xlink:href="src/Discord.ts" xlink:title="no&#45;orphans">
<path fill="#ccffcc" stroke="orange" d="M101.83,-153.88C101.83,-153.88 57.17,-153.88 57.17,-153.88 54.21,-153.88 51.25,-150.92 51.25,-147.96 51.25,-147.96 51.25,-142.04 51.25,-142.04 51.25,-139.08 54.21,-136.12 57.17,-136.12 57.17,-136.12 101.83,-136.12 101.83,-136.12 104.79,-136.12 107.75,-139.08 107.75,-142.04 107.75,-142.04 107.75,-147.96 107.75,-147.96 107.75,-150.92 104.79,-153.88 101.83,-153.88"/>
<text text-anchor="start" x="59.25" y="-141.32" font-family="Helvetica,sans-Serif" font-size="9.00" fill="orange">Discord.ts</text>
</a>
</g>
</g>
<!-- src/ServerStatusManager.ts -->
<g id="node2" class="node">
<title>src/ServerStatusManager.ts</title>
<g id="a_node2"><a xlink:href="src/ServerStatusManager.ts" xlink:title="ServerStatusManager.ts">
<path fill="#ddfeff" stroke="black" d="M606.08,-98.88C606.08,-98.88 503.67,-98.88 503.67,-98.88 500.71,-98.88 497.75,-95.92 497.75,-92.96 497.75,-92.96 497.75,-87.04 497.75,-87.04 497.75,-84.08 500.71,-81.12 503.67,-81.12 503.67,-81.12 606.08,-81.12 606.08,-81.12 609.04,-81.12 612,-84.08 612,-87.04 612,-87.04 612,-92.96 612,-92.96 612,-95.92 609.04,-98.88 606.08,-98.88"/>
<text text-anchor="start" x="505.75" y="-86.33" font-family="Helvetica,sans-Serif" font-size="9.00">ServerStatusManager.ts</text>
</a>
</g>
</g>
<!-- src/archive/scrap.ts -->
<g id="node3" class="node">
<title>src/archive/scrap.ts</title>
<g id="a_node3"><a xlink:href="src/archive/scrap.ts" xlink:title="no&#45;orphans">
<path fill="#ccffcc" stroke="orange" d="M100.58,-307.88C100.58,-307.88 58.42,-307.88 58.42,-307.88 55.46,-307.88 52.5,-304.92 52.5,-301.96 52.5,-301.96 52.5,-296.04 52.5,-296.04 52.5,-293.08 55.46,-290.12 58.42,-290.12 58.42,-290.12 100.58,-290.12 100.58,-290.12 103.54,-290.12 106.5,-293.08 106.5,-296.04 106.5,-296.04 106.5,-301.96 106.5,-301.96 106.5,-304.92 103.54,-307.88 100.58,-307.88"/>
<text text-anchor="start" x="63.75" y="-295.32" font-family="Helvetica,sans-Serif" font-size="9.00" fill="orange">scrap.ts</text>
</a>
</g>
</g>
<!-- src/complexUtils.ts -->
<g id="node4" class="node">
<title>src/complexUtils.ts</title>
<g id="a_node4"><a xlink:href="src/complexUtils.ts" xlink:title="complexUtils.ts">
<path fill="#ddfeff" stroke="black" d="M478.83,-141.88C478.83,-141.88 413.17,-141.88 413.17,-141.88 410.21,-141.88 407.25,-138.92 407.25,-135.96 407.25,-135.96 407.25,-130.04 407.25,-130.04 407.25,-127.08 410.21,-124.12 413.17,-124.12 413.17,-124.12 478.83,-124.12 478.83,-124.12 481.79,-124.12 484.75,-127.08 484.75,-130.04 484.75,-130.04 484.75,-135.96 484.75,-135.96 484.75,-138.92 481.79,-141.88 478.83,-141.88"/>
<text text-anchor="start" x="415.25" y="-129.32" font-family="Helvetica,sans-Serif" font-size="9.00">complexUtils.ts</text>
</a>
</g>
</g>
<!-- src/complexUtils.ts&#45;&gt;src/ServerStatusManager.ts -->
<g id="edge1" class="edge">
<title>src/complexUtils.ts&#45;&gt;src/ServerStatusManager.ts</title>
<path fill="none" stroke="#000000" stroke-width="2" stroke-opacity="0.200000" d="M470.19,-123.67C485.6,-117.47 506,-109.26 522.81,-102.5"/>
<polygon fill="#000000" fill-opacity="0.200000" stroke="#000000" stroke-width="2" stroke-opacity="0.200000" points="523.95,-104.5 528.73,-100.31 522.38,-100.6 523.95,-104.5"/>
</g>
<!-- src/index.ts -->
<g id="node5" class="node">
<title>src/index.ts</title>
<g id="a_node5"><a xlink:href="src/index.ts" xlink:title="index.ts">
<path fill="#ddfeff" stroke="black" d="M100.58,-123.88C100.58,-123.88 58.42,-123.88 58.42,-123.88 55.46,-123.88 52.5,-120.92 52.5,-117.96 52.5,-117.96 52.5,-112.04 52.5,-112.04 52.5,-109.08 55.46,-106.12 58.42,-106.12 58.42,-106.12 100.58,-106.12 100.58,-106.12 103.54,-106.12 106.5,-109.08 106.5,-112.04 106.5,-112.04 106.5,-117.96 106.5,-117.96 106.5,-120.92 103.54,-123.88 100.58,-123.88"/>
<text text-anchor="start" x="63.75" y="-111.33" font-family="Helvetica,sans-Serif" font-size="9.00">index.ts</text>
</a>
</g>
</g>
<!-- src/index.ts&#45;&gt;src/ServerStatusManager.ts -->
<g id="edge3" class="edge">
<title>src/index.ts&#45;&gt;src/ServerStatusManager.ts</title>
<path fill="none" stroke="#000000" stroke-width="2" stroke-opacity="0.200000" d="M106.8,-112.94C120.84,-111.01 138.05,-107.26 152,-100 160.65,-95.5 159.03,-88.82 168,-85 214.93,-65.01 231.61,-79 282.62,-79 282.62,-79 282.62,-79 365.25,-79 406.4,-79 452.51,-81.64 488.84,-84.34"/>
<polygon fill="#000000" fill-opacity="0.200000" stroke="#000000" stroke-width="2" stroke-opacity="0.200000" points="488.24,-86.62 494.39,-84.98 488.56,-82.44 488.24,-86.62"/>
</g>
<!-- src/routes/index.ts -->
<g id="node6" class="node">
<title>src/routes/index.ts</title>
<g id="a_node6"><a xlink:href="src/routes/index.ts" xlink:title="index.ts">
<path fill="#ddfeff" stroke="black" d="M224.08,-158.88C224.08,-158.88 181.92,-158.88 181.92,-158.88 178.96,-158.88 176,-155.92 176,-152.96 176,-152.96 176,-147.04 176,-147.04 176,-144.08 178.96,-141.12 181.92,-141.12 181.92,-141.12 224.08,-141.12 224.08,-141.12 227.04,-141.12 230,-144.08 230,-147.04 230,-147.04 230,-152.96 230,-152.96 230,-155.92 227.04,-158.88 224.08,-158.88"/>
<text text-anchor="start" x="187.25" y="-146.32" font-family="Helvetica,sans-Serif" font-size="9.00">index.ts</text>
</a>
</g>
</g>
<!-- src/index.ts&#45;&gt;src/routes/index.ts -->
<g id="edge2" class="edge">
<title>src/index.ts&#45;&gt;src/routes/index.ts</title>
<path fill="none" stroke="#000000" stroke-width="2" stroke-opacity="0.200000" d="M106.98,-119.21C120.61,-121.72 137.38,-125.32 152,-130 159.39,-132.36 160.82,-134.06 168,-137 168.38,-137.16 168.76,-137.31 169.15,-137.47"/>
<polygon fill="#000000" fill-opacity="0.200000" stroke="#000000" stroke-width="2" stroke-opacity="0.200000" points="169.08,-139.5 175.43,-139.76 170.63,-135.59 169.08,-139.5"/>
</g>
<!-- src/routes/BadCompany.ts -->
<g id="node8" class="node">
<title>src/routes/BadCompany.ts</title>
<g id="a_node8"><a xlink:href="src/routes/BadCompany.ts" xlink:title="BadCompany.ts">
<path fill="#ddfeff" stroke="black" d="M318.33,-113.88C318.33,-113.88 248.92,-113.88 248.92,-113.88 245.96,-113.88 243,-110.92 243,-107.96 243,-107.96 243,-102.04 243,-102.04 243,-99.08 245.96,-96.12 248.92,-96.12 248.92,-96.12 318.33,-96.12 318.33,-96.12 321.29,-96.12 324.25,-99.08 324.25,-102.04 324.25,-102.04 324.25,-107.96 324.25,-107.96 324.25,-110.92 321.29,-113.88 318.33,-113.88"/>
<text text-anchor="start" x="251" y="-101.33" font-family="Helvetica,sans-Serif" font-size="9.00">BadCompany.ts</text>
</a>
</g>
</g>
<!-- src/routes/index.ts&#45;&gt;src/routes/BadCompany.ts -->
<g id="edge8" class="edge">
<title>src/routes/index.ts&#45;&gt;src/routes/BadCompany.ts</title>
<path fill="none" stroke="#000000" stroke-width="2" stroke-opacity="0.200000" d="M224.71,-140.77C226.57,-139.61 228.37,-138.35 230,-137 237.33,-130.94 235.37,-125.68 243,-120 243.65,-119.52 244.31,-119.05 244.98,-118.6"/>
<polygon fill="#000000" fill-opacity="0.200000" stroke="#000000" stroke-width="2" stroke-opacity="0.200000" points="246.49,-120.03 250.68,-115.24 244.42,-116.37 246.49,-120.03"/>
</g>
<!-- src/routes/Channel.ts -->
<g id="node9" class="node">
<title>src/routes/Channel.ts</title>
<g id="a_node9"><a xlink:href="src/routes/Channel.ts" xlink:title="Channel.ts">
<path fill="#ddfeff" stroke="black" d="M307.83,-143.88C307.83,-143.88 259.42,-143.88 259.42,-143.88 256.46,-143.88 253.5,-140.92 253.5,-137.96 253.5,-137.96 253.5,-132.04 253.5,-132.04 253.5,-129.08 256.46,-126.12 259.42,-126.12 259.42,-126.12 307.83,-126.12 307.83,-126.12 310.79,-126.12 313.75,-129.08 313.75,-132.04 313.75,-132.04 313.75,-137.96 313.75,-137.96 313.75,-140.92 310.79,-143.88 307.83,-143.88"/>
<text text-anchor="start" x="261.5" y="-131.32" font-family="Helvetica,sans-Serif" font-size="9.00">Channel.ts</text>
</a>
</g>
</g>
<!-- src/routes/index.ts&#45;&gt;src/routes/Channel.ts -->
<g id="edge9" class="edge">
<title>src/routes/index.ts&#45;&gt;src/routes/Channel.ts</title>
<path fill="none" stroke="#000000" stroke-width="2" stroke-opacity="0.200000" d="M230.18,-145.01C234.76,-144.13 239.61,-143.21 244.43,-142.29"/>
<polygon fill="#000000" fill-opacity="0.200000" stroke="#000000" stroke-width="2" stroke-opacity="0.200000" points="245.53,-143.83 251.03,-140.65 244.74,-139.71 245.53,-143.83"/>
</g>
<!-- src/routes/Directory.ts -->
<g id="node11" class="node">
<title>src/routes/Directory.ts</title>
<g id="a_node11"><a xlink:href="src/routes/Directory.ts" xlink:title="Directory.ts">
<path fill="#ddfeff" stroke="black" d="M308.58,-173.88C308.58,-173.88 258.67,-173.88 258.67,-173.88 255.71,-173.88 252.75,-170.92 252.75,-167.96 252.75,-167.96 252.75,-162.04 252.75,-162.04 252.75,-159.08 255.71,-156.12 258.67,-156.12 258.67,-156.12 308.58,-156.12 308.58,-156.12 311.54,-156.12 314.5,-159.08 314.5,-162.04 314.5,-162.04 314.5,-167.96 314.5,-167.96 314.5,-170.92 311.54,-173.88 308.58,-173.88"/>
<text text-anchor="start" x="260.75" y="-161.32" font-family="Helvetica,sans-Serif" font-size="9.00">Directory.ts</text>
</a>
</g>
</g>
<!-- src/routes/index.ts&#45;&gt;src/routes/Directory.ts -->
<g id="edge10" class="edge">
<title>src/routes/index.ts&#45;&gt;src/routes/Directory.ts</title>
<path fill="none" stroke="#000000" stroke-width="2" stroke-opacity="0.200000" d="M230.18,-154.99C234.54,-155.83 239.13,-156.7 243.73,-157.58"/>
<polygon fill="#000000" fill-opacity="0.200000" stroke="#000000" stroke-width="2" stroke-opacity="0.200000" points="244.19,-160.19 250.48,-159.25 244.98,-156.06 244.19,-160.19"/>
</g>
<!-- src/routes/IndexRouter.ts -->
<g id="node12" class="node">
<title>src/routes/IndexRouter.ts</title>
<g id="a_node12"><a xlink:href="src/routes/IndexRouter.ts" xlink:title="IndexRouter.ts">
<path fill="#ddfeff" stroke="black" d="M315.33,-203.88C315.33,-203.88 251.92,-203.88 251.92,-203.88 248.96,-203.88 246,-200.92 246,-197.96 246,-197.96 246,-192.04 246,-192.04 246,-189.08 248.96,-186.12 251.92,-186.12 251.92,-186.12 315.33,-186.12 315.33,-186.12 318.29,-186.12 321.25,-189.08 321.25,-192.04 321.25,-192.04 321.25,-197.96 321.25,-197.96 321.25,-200.92 318.29,-203.88 315.33,-203.88"/>
<text text-anchor="start" x="254" y="-191.32" font-family="Helvetica,sans-Serif" font-size="9.00">IndexRouter.ts</text>
</a>
</g>
</g>
<!-- src/routes/index.ts&#45;&gt;src/routes/IndexRouter.ts -->
<g id="edge11" class="edge">
<title>src/routes/index.ts&#45;&gt;src/routes/IndexRouter.ts</title>
<path fill="none" stroke="#000000" stroke-width="2" stroke-opacity="0.200000" d="M214.33,-159.31C221.87,-165.75 232.56,-174.17 243,-180 244.28,-180.71 245.6,-181.41 246.95,-182.08"/>
<polygon fill="#000000" fill-opacity="0.200000" stroke="#000000" stroke-width="2" stroke-opacity="0.200000" points="246.54,-184.11 252.87,-184.69 248.28,-180.29 246.54,-184.11"/>
</g>
<!-- src/routes/Url.ts -->
<g id="node13" class="node">
<title>src/routes/Url.ts</title>
<g id="a_node13"><a xlink:href="src/routes/Url.ts" xlink:title="Url.ts">
<path fill="#ddfeff" stroke="black" d="M304.71,-233.88C304.71,-233.88 262.54,-233.88 262.54,-233.88 259.58,-233.88 256.62,-230.92 256.62,-227.96 256.62,-227.96 256.62,-222.04 256.62,-222.04 256.62,-219.08 259.58,-216.12 262.54,-216.12 262.54,-216.12 304.71,-216.12 304.71,-216.12 307.67,-216.12 310.62,-219.08 310.62,-222.04 310.62,-222.04 310.62,-227.96 310.62,-227.96 310.62,-230.92 307.67,-233.88 304.71,-233.88"/>
<text text-anchor="start" x="273.12" y="-221.32" font-family="Helvetica,sans-Serif" font-size="9.00">Url.ts</text>
</a>
</g>
</g>
<!-- src/routes/index.ts&#45;&gt;src/routes/Url.ts -->
<g id="edge12" class="edge">
<title>src/routes/index.ts&#45;&gt;src/routes/Url.ts</title>
<path fill="none" stroke="#000000" stroke-width="2" stroke-opacity="0.200000" d="M207.67,-159.02C213.38,-172.01 225.59,-195.97 243,-210 244.7,-211.37 246.55,-212.63 248.47,-213.78"/>
<polygon fill="#000000" fill-opacity="0.200000" stroke="#000000" stroke-width="2" stroke-opacity="0.200000" points="247.9,-215.85 254.2,-216.69 249.8,-212.11 247.9,-215.85"/>
</g>
<!-- src/mockup.ts -->
<g id="node7" class="node">
<title>src/mockup.ts</title>
<g id="a_node7"><a xlink:href="src/mockup.ts" xlink:title="no&#45;orphans">
<path fill="#ccffcc" stroke="orange" d="M102.21,-93.88C102.21,-93.88 56.79,-93.88 56.79,-93.88 53.83,-93.88 50.88,-90.92 50.88,-87.96 50.88,-87.96 50.88,-82.04 50.88,-82.04 50.88,-79.08 53.83,-76.12 56.79,-76.12 56.79,-76.12 102.21,-76.12 102.21,-76.12 105.17,-76.12 108.12,-79.08 108.12,-82.04 108.12,-82.04 108.12,-87.96 108.12,-87.96 108.12,-90.92 105.17,-93.88 102.21,-93.88"/>
<text text-anchor="start" x="58.88" y="-81.33" font-family="Helvetica,sans-Serif" font-size="9.00" fill="orange">mockup.ts</text>
</a>
</g>
</g>
<!-- src/routes/utils.ts -->
<g id="node10" class="node">
<title>src/routes/utils.ts</title>
<g id="a_node10"><a xlink:href="src/routes/utils.ts" xlink:title="utils.ts">
<path fill="#ddfeff" stroke="black" d="M385.33,-173.88C385.33,-173.88 343.17,-173.88 343.17,-173.88 340.21,-173.88 337.25,-170.92 337.25,-167.96 337.25,-167.96 337.25,-162.04 337.25,-162.04 337.25,-159.08 340.21,-156.12 343.17,-156.12 343.17,-156.12 385.33,-156.12 385.33,-156.12 388.29,-156.12 391.25,-159.08 391.25,-162.04 391.25,-162.04 391.25,-167.96 391.25,-167.96 391.25,-170.92 388.29,-173.88 385.33,-173.88"/>
<text text-anchor="start" x="351.5" y="-161.32" font-family="Helvetica,sans-Serif" font-size="9.00">utils.ts</text>
</a>
</g>
</g>
<!-- src/routes/Channel.ts&#45;&gt;src/routes/utils.ts -->
<g id="edge4" class="edge">
<title>src/routes/Channel.ts&#45;&gt;src/routes/utils.ts</title>
<path fill="none" stroke="#000000" stroke-width="2" stroke-opacity="0.200000" d="M309.36,-144.34C314.3,-146.21 319.44,-148.16 324.25,-150 326.54,-150.87 328.9,-151.78 331.28,-152.69"/>
<polygon fill="#000000" fill-opacity="0.200000" stroke="#000000" stroke-width="2" stroke-opacity="0.200000" points="330.98,-154.59 337.33,-154.78 332.48,-150.67 330.98,-154.59"/>
</g>
<!-- src/routes/utils.ts&#45;&gt;src/complexUtils.ts -->
<g id="edge13" class="edge">
<title>src/routes/utils.ts&#45;&gt;src/complexUtils.ts</title>
<path fill="none" stroke="#000000" stroke-width="2" stroke-opacity="0.200000" d="M389.8,-155.71C392.98,-154.48 396.2,-153.22 399.25,-152 404.39,-149.95 409.83,-147.73 415.1,-145.56"/>
<polygon fill="#000000" fill-opacity="0.200000" stroke="#000000" stroke-width="2" stroke-opacity="0.200000" points="416.44,-147.45 421.18,-143.21 414.83,-143.57 416.44,-147.45"/>
</g>
<!-- src/routes/Directory.ts&#45;&gt;src/routes/utils.ts -->
<g id="edge5" class="edge">
<title>src/routes/Directory.ts&#45;&gt;src/routes/utils.ts</title>
<path fill="none" stroke="#000000" stroke-width="2" stroke-opacity="0.200000" d="M314.8,-165C319.12,-165 323.59,-165 328,-165"/>
<polygon fill="#000000" fill-opacity="0.200000" stroke="#000000" stroke-width="2" stroke-opacity="0.200000" points="327.88,-167.1 333.88,-165 327.88,-162.9 327.88,-167.1"/>
</g>
<!-- src/routes/IndexRouter.ts&#45;&gt;src/routes/utils.ts -->
<g id="edge6" class="edge">
<title>src/routes/IndexRouter.ts&#45;&gt;src/routes/utils.ts</title>
<path fill="none" stroke="#000000" stroke-width="2" stroke-opacity="0.200000" d="M309.36,-185.66C314.3,-183.79 319.44,-181.84 324.25,-180 326.54,-179.13 328.9,-178.22 331.28,-177.31"/>
<polygon fill="#000000" fill-opacity="0.200000" stroke="#000000" stroke-width="2" stroke-opacity="0.200000" points="332.48,-179.33 337.33,-175.22 330.98,-175.41 332.48,-179.33"/>
</g>
<!-- src/routes/Url.ts&#45;&gt;src/routes/utils.ts -->
<g id="edge7" class="edge">
<title>src/routes/Url.ts&#45;&gt;src/routes/utils.ts</title>
<path fill="none" stroke="#000000" stroke-width="2" stroke-opacity="0.200000" d="M310.71,-217.24C315.43,-215.26 320.15,-212.86 324.25,-210 335.24,-202.33 345.11,-190.88 352.17,-181.45"/>
<polygon fill="#000000" fill-opacity="0.200000" stroke="#000000" stroke-width="2" stroke-opacity="0.200000" points="354.62,-182.24 356.4,-176.13 351.2,-179.79 354.62,-182.24"/>
</g>
<!-- src/scrapeUtils.ts -->
<g id="node14" class="node">
<title>src/scrapeUtils.ts</title>
<g id="a_node14"><a xlink:href="src/scrapeUtils.ts" xlink:title="no&#45;orphans">
<path fill="#ccffcc" stroke="orange" d="M108.96,-63.88C108.96,-63.88 50.04,-63.88 50.04,-63.88 47.08,-63.88 44.12,-60.92 44.12,-57.96 44.12,-57.96 44.12,-52.04 44.12,-52.04 44.12,-49.08 47.08,-46.12 50.04,-46.12 50.04,-46.12 108.96,-46.12 108.96,-46.12 111.92,-46.12 114.88,-49.08 114.88,-52.04 114.88,-52.04 114.88,-57.96 114.88,-57.96 114.88,-60.92 111.92,-63.88 108.96,-63.88"/>
<text text-anchor="start" x="52.12" y="-51.33" font-family="Helvetica,sans-Serif" font-size="9.00" fill="orange">scrapeUtils.ts</text>
</a>
</g>
</g>
<!-- src/test.ts -->
<g id="node15" class="node">
<title>src/test.ts</title>
<g id="a_node15"><a xlink:href="src/test.ts" xlink:title="no&#45;orphans">
<path fill="#ccffcc" stroke="orange" d="M100.58,-33.88C100.58,-33.88 58.42,-33.88 58.42,-33.88 55.46,-33.88 52.5,-30.92 52.5,-27.96 52.5,-27.96 52.5,-22.04 52.5,-22.04 52.5,-19.08 55.46,-16.12 58.42,-16.12 58.42,-16.12 100.58,-16.12 100.58,-16.12 103.54,-16.12 106.5,-19.08 106.5,-22.04 106.5,-22.04 106.5,-27.96 106.5,-27.96 106.5,-30.92 103.54,-33.88 100.58,-33.88"/>
<text text-anchor="start" x="67.88" y="-21.32" font-family="Helvetica,sans-Serif" font-size="9.00" fill="orange">test.ts</text>
</a>
</g>
</g>
<!-- src/types/express&#45;serve&#45;static&#45;core/index.d.ts -->
<g id="node16" class="node">
<title>src/types/express&#45;serve&#45;static&#45;core/index.d.ts</title>
<g id="a_node16"><a xlink:href="src/types/express-serve-static-core/index.d.ts" xlink:title="index.d.ts">
<path fill="#ccffcc" stroke="black" d="M101.08,-221.88C101.08,-221.88 57.92,-221.88 57.92,-221.88 54.96,-221.88 52,-218.92 52,-215.96 52,-215.96 52,-210.04 52,-210.04 52,-207.08 54.96,-204.12 57.92,-204.12 57.92,-204.12 101.08,-204.12 101.08,-204.12 104.04,-204.12 107,-207.08 107,-210.04 107,-210.04 107,-215.96 107,-215.96 107,-218.92 104.04,-221.88 101.08,-221.88"/>
<text text-anchor="start" x="60" y="-209.32" font-family="Helvetica,sans-Serif" font-size="9.00">index.d.ts</text>
</a>
</g>
</g>
<!-- src/types/types.d.ts -->
<g id="node17" class="node">
<title>src/types/types.d.ts</title>
<g id="a_node17"><a xlink:href="src/types/types.d.ts" xlink:title="types.d.ts">
<path fill="#ccffcc" stroke="black" d="M100.71,-187.88C100.71,-187.88 58.29,-187.88 58.29,-187.88 55.33,-187.88 52.38,-184.92 52.38,-181.96 52.38,-181.96 52.38,-176.04 52.38,-176.04 52.38,-173.08 55.33,-170.12 58.29,-170.12 58.29,-170.12 100.71,-170.12 100.71,-170.12 103.67,-170.12 106.62,-173.08 106.62,-176.04 106.62,-176.04 106.62,-181.96 106.62,-181.96 106.62,-184.92 103.67,-187.88 100.71,-187.88"/>
<text text-anchor="start" x="60.38" y="-175.32" font-family="Helvetica,sans-Serif" font-size="9.00">types.d.ts</text>
</a>
</g>
</g>
</g>
</svg>
