<?xml version="1.0" encoding="UTF-8" standalone="no"?>
<!DOCTYPE svg PUBLIC "-//W3C//DTD SVG 1.1//EN"
 "http://www.w3.org/Graphics/SVG/1.1/DTD/svg11.dtd">
<!-- Generated by graphviz version 8.0.5 (20230430.1635)
 -->
<!-- Title: dependency&#45;cruiser output Pages: 1 -->
<svg width="640pt" height="314pt"
 viewBox="0.00 0.00 639.75 314.00" xmlns="http://www.w3.org/2000/svg" xmlns:xlink="http://www.w3.org/1999/xlink">
<g id="graph0" class="graph" transform="scale(1 1) rotate(0) translate(4 310)">
<title>dependency&#45;cruiser output</title>
<polygon fill="white" stroke="none" points="-4,4 -4,-310 635.75,-310 635.75,4 -4,4"/>
<g id="clust1" class="cluster">
<title>cluster_src</title>
<path fill="#ffffff" stroke="black" stroke-width="2" d="M20,-8C20,-8 611.75,-8 611.75,-8 617.75,-8 623.75,-14 623.75,-20 623.75,-20 623.75,-286 623.75,-286 623.75,-292 617.75,-298 611.75,-298 611.75,-298 20,-298 20,-298 14,-298 8,-292 8,-286 8,-286 8,-20 8,-20 8,-14 14,-8 20,-8"/>
<text text-anchor="middle" x="315.88" y="-285.45" font-family="Helvetica,sans-Serif" font-weight="bold" font-size="9.00">src</text>
</g>
<g id="clust2" class="cluster">
<title>cluster_src/archive</title>
<path fill="#ffffff" stroke="black" stroke-width="2" d="M28,-220C28,-220 74,-220 74,-220 80,-220 86,-226 86,-232 86,-232 86,-260 86,-260 86,-266 80,-272 74,-272 74,-272 28,-272 28,-272 22,-272 16,-266 16,-260 16,-260 16,-232 16,-232 16,-226 22,-220 28,-220"/>
<text text-anchor="middle" x="51" y="-259.45" font-family="Helvetica,sans-Serif" font-weight="bold" font-size="9.00">archive</text>
</g>
<g id="clust3" class="cluster">
<title>cluster_src/routes</title>
<path fill="#ffffff" stroke="black" stroke-width="2" d="M106,-16C106,-16 313.25,-16 313.25,-16 319.25,-16 325.25,-22 325.25,-28 325.25,-28 325.25,-206 325.25,-206 325.25,-212 319.25,-218 313.25,-218 313.25,-218 106,-218 106,-218 100,-218 94,-212 94,-206 94,-206 94,-28 94,-28 94,-22 100,-16 106,-16"/>
<text text-anchor="middle" x="209.62" y="-205.45" font-family="Helvetica,sans-Serif" font-weight="bold" font-size="9.00">routes</text>
</g>
<g id="clust4" class="cluster">
<title>cluster_src/types</title>
<path fill="#ffffff" stroke="black" stroke-width="2" d="M353.25,-160C353.25,-160 473.25,-160 473.25,-160 479.25,-160 485.25,-166 485.25,-172 485.25,-172 485.25,-260 485.25,-260 485.25,-266 479.25,-272 473.25,-272 473.25,-272 353.25,-272 353.25,-272 347.25,-272 341.25,-266 341.25,-260 341.25,-260 341.25,-172 341.25,-172 341.25,-166 347.25,-160 353.25,-160"/>
<text text-anchor="middle" x="413.25" y="-259.45" font-family="Helvetica,sans-Serif" font-weight="bold" font-size="9.00">types</text>
</g>
<g id="clust5" class="cluster">
<title>cluster_src/types/express&#45;serve&#45;static&#45;core</title>
<path fill="#ffffff" stroke="black" stroke-width="2" d="M361.25,-194C361.25,-194 465.25,-194 465.25,-194 471.25,-194 477.25,-200 477.25,-206 477.25,-206 477.25,-234 477.25,-234 477.25,-240 471.25,-246 465.25,-246 465.25,-246 361.25,-246 361.25,-246 355.25,-246 349.25,-240 349.25,-234 349.25,-234 349.25,-206 349.25,-206 349.25,-200 355.25,-194 361.25,-194"/>
<text text-anchor="middle" x="413.25" y="-233.45" font-family="Helvetica,sans-Serif" font-weight="bold" font-size="9.00">express&#45;serve&#45;static&#45;core</text>
</g>
<!-- src/ServerStatusManager.ts -->
<g id="node1" class="node">
<title>src/ServerStatusManager.ts</title>
<g id="a_node1"><a xlink:href="src/ServerStatusManager.ts" xlink:title="ServerStatusManager.ts">
<path fill="#ddfeff" stroke="black" d="M609.83,-159.88C609.83,-159.88 507.42,-159.88 507.42,-159.88 504.46,-159.88 501.5,-156.92 501.5,-153.96 501.5,-153.96 501.5,-148.04 501.5,-148.04 501.5,-145.08 504.46,-142.12 507.42,-142.12 507.42,-142.12 609.83,-142.12 609.83,-142.12 612.79,-142.12 615.75,-145.08 615.75,-148.04 615.75,-148.04 615.75,-153.96 615.75,-153.96 615.75,-156.92 612.79,-159.88 609.83,-159.88"/>
<text text-anchor="start" x="509.5" y="-147.32" font-family="Helvetica,sans-Serif" font-size="9.00">ServerStatusManager.ts</text>
</a>
</g>
</g>
<!-- src/archive/scrap.ts -->
<g id="node2" class="node">
<title>src/archive/scrap.ts</title>
<g id="a_node2"><a xlink:href="src/archive/scrap.ts" xlink:title="no&#45;orphans">
<path fill="#ccffcc" stroke="orange" d="M72.08,-245.88C72.08,-245.88 29.92,-245.88 29.92,-245.88 26.96,-245.88 24,-242.92 24,-239.96 24,-239.96 24,-234.04 24,-234.04 24,-231.08 26.96,-228.12 29.92,-228.12 29.92,-228.12 72.08,-228.12 72.08,-228.12 75.04,-228.12 78,-231.08 78,-234.04 78,-234.04 78,-239.96 78,-239.96 78,-242.92 75.04,-245.88 72.08,-245.88"/>
<text text-anchor="start" x="35.25" y="-233.32" font-family="Helvetica,sans-Serif" font-size="9.00" fill="orange">scrap.ts</text>
</a>
</g>
</g>
<!-- src/complexUtils.ts -->
<g id="node3" class="node">
<title>src/complexUtils.ts</title>
<g id="a_node3"><a xlink:href="src/complexUtils.ts" xlink:title="complexUtils.ts">
<path fill="#ddfeff" stroke="black" d="M445.58,-137.88C445.58,-137.88 379.92,-137.88 379.92,-137.88 376.96,-137.88 374,-134.92 374,-131.96 374,-131.96 374,-126.04 374,-126.04 374,-123.08 376.96,-120.12 379.92,-120.12 379.92,-120.12 445.58,-120.12 445.58,-120.12 448.54,-120.12 451.5,-123.08 451.5,-126.04 451.5,-126.04 451.5,-131.96 451.5,-131.96 451.5,-134.92 448.54,-137.88 445.58,-137.88"/>
<text text-anchor="start" x="382" y="-125.33" font-family="Helvetica,sans-Serif" font-size="9.00">complexUtils.ts</text>
</a>
</g>
</g>
<!-- src/complexUtils.ts&#45;&gt;src/ServerStatusManager.ts -->
<g id="edge1" class="edge">
<title>src/complexUtils.ts&#45;&gt;src/ServerStatusManager.ts</title>
<path fill="none" stroke="#000000" stroke-width="2" stroke-opacity="0.200000" d="M451.93,-134.84C464.41,-136.75 478.64,-138.92 492.53,-141.05"/>
<polygon fill="#000000" fill-opacity="0.200000" stroke="#000000" stroke-width="2" stroke-opacity="0.200000" points="492.86,-143.53 499.11,-142.36 493.5,-139.38 492.86,-143.53"/>
</g>
<!-- src/index.ts -->
<g id="node4" class="node">
<title>src/index.ts</title>
<g id="a_node4"><a xlink:href="src/index.ts" xlink:title="index.ts">
<path fill="#ddfeff" stroke="black" d="M72.08,-211.88C72.08,-211.88 29.92,-211.88 29.92,-211.88 26.96,-211.88 24,-208.92 24,-205.96 24,-205.96 24,-200.04 24,-200.04 24,-197.08 26.96,-194.12 29.92,-194.12 29.92,-194.12 72.08,-194.12 72.08,-194.12 75.04,-194.12 78,-197.08 78,-200.04 78,-200.04 78,-205.96 78,-205.96 78,-208.92 75.04,-211.88 72.08,-211.88"/>
<text text-anchor="start" x="35.25" y="-199.32" font-family="Helvetica,sans-Serif" font-size="9.00">index.ts</text>
</a>
</g>
</g>
<!-- src/index.ts&#45;&gt;src/ServerStatusManager.ts -->
<g id="edge4" class="edge">
<title>src/index.ts&#45;&gt;src/ServerStatusManager.ts</title>
<path fill="none" stroke="#000000" stroke-width="2" stroke-opacity="0.200000" d="M78.29,-211.16C81.12,-212.79 83.77,-214.71 86,-217 92.97,-224.16 86.46,-231.45 94,-238 146.75,-283.79 180.55,-259.63 250.25,-255 283.8,-252.77 300.92,-268.21 325.25,-245 354.02,-217.56 311.09,-182.89 341.25,-157 352.54,-147.31 432.67,-147.31 492.14,-148.72"/>
<polygon fill="#000000" fill-opacity="0.200000" stroke="#000000" stroke-width="2" stroke-opacity="0.200000" points="492.08,-150.9 498.13,-148.95 492.18,-146.7 492.08,-150.9"/>
</g>
<!-- src/index.ts&#45;&gt;src/complexUtils.ts -->
<g id="edge2" class="edge">
<title>src/index.ts&#45;&gt;src/complexUtils.ts</title>
<path fill="none" stroke="#000000" stroke-width="2" stroke-opacity="0.200000" d="M75.14,-212.26C78.79,-213.8 82.51,-215.41 86,-217 89.62,-218.65 90.36,-219.39 94,-221 126.69,-235.45 133.87,-243.44 169,-250 204.5,-256.62 214.34,-253.79 250.25,-250 284.15,-246.42 301.49,-258.44 325.25,-234 352.65,-205.81 314.41,-175.73 341.25,-147 347.59,-140.21 356.1,-135.84 365.01,-133.06"/>
<polygon fill="#000000" fill-opacity="0.200000" stroke="#000000" stroke-width="2" stroke-opacity="0.200000" points="366.34,-134.37 371.62,-130.84 365.29,-130.3 366.34,-134.37"/>
</g>
<!-- src/routes/index.ts -->
<g id="node5" class="node">
<title>src/routes/index.ts</title>
<g id="a_node5"><a xlink:href="src/routes/index.ts" xlink:title="index.ts">
<path fill="#ddfeff" stroke="black" d="M150.08,-131.88C150.08,-131.88 107.92,-131.88 107.92,-131.88 104.96,-131.88 102,-128.92 102,-125.96 102,-125.96 102,-120.04 102,-120.04 102,-117.08 104.96,-114.12 107.92,-114.12 107.92,-114.12 150.08,-114.12 150.08,-114.12 153.04,-114.12 156,-117.08 156,-120.04 156,-120.04 156,-125.96 156,-125.96 156,-128.92 153.04,-131.88 150.08,-131.88"/>
<text text-anchor="start" x="113.25" y="-119.33" font-family="Helvetica,sans-Serif" font-size="9.00">index.ts</text>
</a>
</g>
</g>
<!-- src/index.ts&#45;&gt;src/routes/index.ts -->
<g id="edge3" class="edge">
<title>src/index.ts&#45;&gt;src/routes/index.ts</title>
<path fill="none" stroke="#000000" stroke-width="2" stroke-opacity="0.200000" d="M55.47,-193.89C61.33,-179.64 74.49,-152.04 94,-136 94.15,-135.88 94.29,-135.76 94.44,-135.64"/>
<polygon fill="#000000" fill-opacity="0.200000" stroke="#000000" stroke-width="2" stroke-opacity="0.200000" points="95.84,-136.97 99.78,-131.99 93.59,-133.43 95.84,-136.97"/>
</g>
<!-- src/routes/BadCompany.ts -->
<g id="node6" class="node">
<title>src/routes/BadCompany.ts</title>
<g id="a_node6"><a xlink:href="src/routes/BadCompany.ts" xlink:title="BadCompany.ts">
<path fill="#ddfeff" stroke="black" d="M244.33,-41.88C244.33,-41.88 174.92,-41.88 174.92,-41.88 171.96,-41.88 169,-38.92 169,-35.96 169,-35.96 169,-30.04 169,-30.04 169,-27.08 171.96,-24.12 174.92,-24.12 174.92,-24.12 244.33,-24.12 244.33,-24.12 247.29,-24.12 250.25,-27.08 250.25,-30.04 250.25,-30.04 250.25,-35.96 250.25,-35.96 250.25,-38.92 247.29,-41.88 244.33,-41.88"/>
<text text-anchor="start" x="177" y="-29.32" font-family="Helvetica,sans-Serif" font-size="9.00">BadCompany.ts</text>
</a>
</g>
</g>
<!-- src/routes/index.ts&#45;&gt;src/routes/BadCompany.ts -->
<g id="edge10" class="edge">
<title>src/routes/index.ts&#45;&gt;src/routes/BadCompany.ts</title>
<path fill="none" stroke="#000000" stroke-width="2" stroke-opacity="0.200000" d="M132.43,-113.82C137.01,-98.19 148.38,-66.33 169,-48 169.47,-47.58 169.96,-47.17 170.46,-46.77"/>
<polygon fill="#000000" fill-opacity="0.200000" stroke="#000000" stroke-width="2" stroke-opacity="0.200000" points="171.61,-48.22 175.48,-43.18 169.31,-44.71 171.61,-48.22"/>
</g>
<!-- src/routes/Channel.ts -->
<g id="node7" class="node">
<title>src/routes/Channel.ts</title>
<g id="a_node7"><a xlink:href="src/routes/Channel.ts" xlink:title="Channel.ts">
<path fill="#ddfeff" stroke="black" d="M233.83,-71.88C233.83,-71.88 185.42,-71.88 185.42,-71.88 182.46,-71.88 179.5,-68.92 179.5,-65.96 179.5,-65.96 179.5,-60.04 179.5,-60.04 179.5,-57.08 182.46,-54.12 185.42,-54.12 185.42,-54.12 233.83,-54.12 233.83,-54.12 236.79,-54.12 239.75,-57.08 239.75,-60.04 239.75,-60.04 239.75,-65.96 239.75,-65.96 239.75,-68.92 236.79,-71.88 233.83,-71.88"/>
<text text-anchor="start" x="187.5" y="-59.33" font-family="Helvetica,sans-Serif" font-size="9.00">Channel.ts</text>
</a>
</g>
</g>
<!-- src/routes/index.ts&#45;&gt;src/routes/Channel.ts -->
<g id="edge11" class="edge">
<title>src/routes/index.ts&#45;&gt;src/routes/Channel.ts</title>
<path fill="none" stroke="#000000" stroke-width="2" stroke-opacity="0.200000" d="M135.85,-113.87C142.71,-103.83 154.93,-87.82 169,-78 169.78,-77.45 170.59,-76.92 171.42,-76.41"/>
<polygon fill="#000000" fill-opacity="0.200000" stroke="#000000" stroke-width="2" stroke-opacity="0.200000" points="172.92,-77.91 177.22,-73.22 170.94,-74.21 172.92,-77.91"/>
</g>
<!-- src/routes/Directory.ts -->
<g id="node9" class="node">
<title>src/routes/Directory.ts</title>
<g id="a_node9"><a xlink:href="src/routes/Directory.ts" xlink:title="Directory.ts">
<path fill="#ddfeff" stroke="black" d="M234.58,-101.88C234.58,-101.88 184.67,-101.88 184.67,-101.88 181.71,-101.88 178.75,-98.92 178.75,-95.96 178.75,-95.96 178.75,-90.04 178.75,-90.04 178.75,-87.08 181.71,-84.12 184.67,-84.12 184.67,-84.12 234.58,-84.12 234.58,-84.12 237.54,-84.12 240.5,-87.08 240.5,-90.04 240.5,-90.04 240.5,-95.96 240.5,-95.96 240.5,-98.92 237.54,-101.88 234.58,-101.88"/>
<text text-anchor="start" x="186.75" y="-89.33" font-family="Helvetica,sans-Serif" font-size="9.00">Directory.ts</text>
</a>
</g>
</g>
<!-- src/routes/index.ts&#45;&gt;src/routes/Directory.ts -->
<g id="edge12" class="edge">
<title>src/routes/index.ts&#45;&gt;src/routes/Directory.ts</title>
<path fill="none" stroke="#000000" stroke-width="2" stroke-opacity="0.200000" d="M153.92,-113.78C158.9,-111.86 164.12,-109.86 169,-108 171.26,-107.14 173.58,-106.25 175.93,-105.36"/>
<polygon fill="#000000" fill-opacity="0.200000" stroke="#000000" stroke-width="2" stroke-opacity="0.200000" points="177.02,-107.43 181.89,-103.34 175.53,-103.51 177.02,-107.43"/>
</g>
<!-- src/routes/IndexRouter.ts -->
<g id="node10" class="node">
<title>src/routes/IndexRouter.ts</title>
<g id="a_node10"><a xlink:href="src/routes/IndexRouter.ts" xlink:title="IndexRouter.ts">
<path fill="#ddfeff" stroke="black" d="M241.33,-131.88C241.33,-131.88 177.92,-131.88 177.92,-131.88 174.96,-131.88 172,-128.92 172,-125.96 172,-125.96 172,-120.04 172,-120.04 172,-117.08 174.96,-114.12 177.92,-114.12 177.92,-114.12 241.33,-114.12 241.33,-114.12 244.29,-114.12 247.25,-117.08 247.25,-120.04 247.25,-120.04 247.25,-125.96 247.25,-125.96 247.25,-128.92 244.29,-131.88 241.33,-131.88"/>
<text text-anchor="start" x="180" y="-119.33" font-family="Helvetica,sans-Serif" font-size="9.00">IndexRouter.ts</text>
</a>
</g>
</g>
<!-- src/routes/index.ts&#45;&gt;src/routes/IndexRouter.ts -->
<g id="edge13" class="edge">
<title>src/routes/index.ts&#45;&gt;src/routes/IndexRouter.ts</title>
<path fill="none" stroke="#000000" stroke-width="2" stroke-opacity="0.200000" d="M156.18,-123C158.37,-123 160.62,-123 162.9,-123"/>
<polygon fill="#000000" fill-opacity="0.200000" stroke="#000000" stroke-width="2" stroke-opacity="0.200000" points="162.77,-125.1 168.77,-123 162.77,-120.9 162.77,-125.1"/>
</g>
<!-- src/routes/Url.ts -->
<g id="node11" class="node">
<title>src/routes/Url.ts</title>
<g id="a_node11"><a xlink:href="src/routes/Url.ts" xlink:title="Url.ts">
<path fill="#ddfeff" stroke="black" d="M230.71,-161.88C230.71,-161.88 188.54,-161.88 188.54,-161.88 185.58,-161.88 182.62,-158.92 182.62,-155.96 182.62,-155.96 182.62,-150.04 182.62,-150.04 182.62,-147.08 185.58,-144.12 188.54,-144.12 188.54,-144.12 230.71,-144.12 230.71,-144.12 233.67,-144.12 236.62,-147.08 236.62,-150.04 236.62,-150.04 236.62,-155.96 236.62,-155.96 236.62,-158.92 233.67,-161.88 230.71,-161.88"/>
<text text-anchor="start" x="199.12" y="-149.32" font-family="Helvetica,sans-Serif" font-size="9.00">Url.ts</text>
</a>
</g>
</g>
<!-- src/routes/index.ts&#45;&gt;src/routes/Url.ts -->
<g id="edge14" class="edge">
<title>src/routes/index.ts&#45;&gt;src/routes/Url.ts</title>
<path fill="none" stroke="#000000" stroke-width="2" stroke-opacity="0.200000" d="M153.92,-132.22C158.9,-134.14 164.12,-136.14 169,-138 171.26,-138.86 173.58,-139.75 175.93,-140.64"/>
<polygon fill="#000000" fill-opacity="0.200000" stroke="#000000" stroke-width="2" stroke-opacity="0.200000" points="175.53,-142.49 181.89,-142.66 177.02,-138.57 175.53,-142.49"/>
</g>
<!-- src/routes/VersionRoute.ts -->
<g id="node12" class="node">
<title>src/routes/VersionRoute.ts</title>
<g id="a_node12"><a xlink:href="src/routes/VersionRoute.ts" xlink:title="VersionRoute.ts">
<path fill="#ddfeff" stroke="black" d="M243.96,-191.88C243.96,-191.88 175.29,-191.88 175.29,-191.88 172.33,-191.88 169.38,-188.92 169.38,-185.96 169.38,-185.96 169.38,-180.04 169.38,-180.04 169.38,-177.08 172.33,-174.12 175.29,-174.12 175.29,-174.12 243.96,-174.12 243.96,-174.12 246.92,-174.12 249.88,-177.08 249.88,-180.04 249.88,-180.04 249.88,-185.96 249.88,-185.96 249.88,-188.92 246.92,-191.88 243.96,-191.88"/>
<text text-anchor="start" x="177.38" y="-179.32" font-family="Helvetica,sans-Serif" font-size="9.00">VersionRoute.ts</text>
</a>
</g>
</g>
<!-- src/routes/index.ts&#45;&gt;src/routes/VersionRoute.ts -->
<g id="edge15" class="edge">
<title>src/routes/index.ts&#45;&gt;src/routes/VersionRoute.ts</title>
<path fill="none" stroke="#000000" stroke-width="2" stroke-opacity="0.200000" d="M151.87,-132.35C153.37,-133.45 154.77,-134.67 156,-136 166.42,-147.27 158.02,-157.28 169,-168 169.29,-168.28 169.58,-168.56 169.89,-168.83"/>
<polygon fill="#000000" fill-opacity="0.200000" stroke="#000000" stroke-width="2" stroke-opacity="0.200000" points="168.77,-171.05 174.87,-172.83 171.21,-167.63 168.77,-171.05"/>
</g>
<!-- src/routes/utils.ts -->
<g id="node8" class="node">
<title>src/routes/utils.ts</title>
<g id="a_node8"><a xlink:href="src/routes/utils.ts" xlink:title="utils.ts">
<path fill="#ddfeff" stroke="black" d="M311.33,-137.88C311.33,-137.88 269.17,-137.88 269.17,-137.88 266.21,-137.88 263.25,-134.92 263.25,-131.96 263.25,-131.96 263.25,-126.04 263.25,-126.04 263.25,-123.08 266.21,-120.12 269.17,-120.12 269.17,-120.12 311.33,-120.12 311.33,-120.12 314.29,-120.12 317.25,-123.08 317.25,-126.04 317.25,-126.04 317.25,-131.96 317.25,-131.96 317.25,-134.92 314.29,-137.88 311.33,-137.88"/>
<text text-anchor="start" x="277.5" y="-125.33" font-family="Helvetica,sans-Serif" font-size="9.00">utils.ts</text>
</a>
</g>
</g>
<!-- src/routes/Channel.ts&#45;&gt;src/routes/utils.ts -->
<g id="edge5" class="edge">
<title>src/routes/Channel.ts&#45;&gt;src/routes/utils.ts</title>
<path fill="none" stroke="#000000" stroke-width="2" stroke-opacity="0.200000" d="M240.16,-72.04C243.73,-73.74 247.18,-75.72 250.25,-78 262.5,-87.12 272.82,-101.1 279.75,-112.11"/>
<polygon fill="#000000" fill-opacity="0.200000" stroke="#000000" stroke-width="2" stroke-opacity="0.200000" points="278.49,-113.76 283.38,-117.83 282.09,-111.6 278.49,-113.76"/>
</g>
<!-- src/routes/utils.ts&#45;&gt;src/complexUtils.ts -->
<g id="edge16" class="edge">
<title>src/routes/utils.ts&#45;&gt;src/complexUtils.ts</title>
<path fill="none" stroke="#000000" stroke-width="2" stroke-opacity="0.200000" d="M317.69,-129C331.61,-129 349.07,-129 365.17,-129"/>
<polygon fill="#000000" fill-opacity="0.200000" stroke="#000000" stroke-width="2" stroke-opacity="0.200000" points="364.94,-131.1 370.94,-129 364.94,-126.9 364.94,-131.1"/>
</g>
<!-- src/routes/Directory.ts&#45;&gt;src/routes/utils.ts -->
<g id="edge6" class="edge">
<title>src/routes/Directory.ts&#45;&gt;src/routes/utils.ts</title>
<path fill="none" stroke="#000000" stroke-width="2" stroke-opacity="0.200000" d="M236.83,-102.36C241.35,-104.13 245.97,-106.05 250.25,-108 255.3,-110.3 260.6,-112.98 265.62,-115.63"/>
<polygon fill="#000000" fill-opacity="0.200000" stroke="#000000" stroke-width="2" stroke-opacity="0.200000" points="264.9,-117.71 271.17,-118.72 266.9,-114.02 264.9,-117.71"/>
</g>
<!-- src/routes/IndexRouter.ts&#45;&gt;src/routes/utils.ts -->
<g id="edge7" class="edge">
<title>src/routes/IndexRouter.ts&#45;&gt;src/routes/utils.ts</title>
<path fill="none" stroke="#000000" stroke-width="2" stroke-opacity="0.200000" d="M247.64,-125.82C249.94,-126 252.25,-126.18 254.54,-126.35"/>
<polygon fill="#000000" fill-opacity="0.200000" stroke="#000000" stroke-width="2" stroke-opacity="0.200000" points="254.05,-128.65 260.2,-127.01 254.37,-124.46 254.05,-128.65"/>
</g>
<!-- src/routes/Url.ts&#45;&gt;src/routes/utils.ts -->
<g id="edge8" class="edge">
<title>src/routes/Url.ts&#45;&gt;src/routes/utils.ts</title>
<path fill="none" stroke="#000000" stroke-width="2" stroke-opacity="0.200000" d="M236.81,-145.01C242.45,-143.29 248.5,-141.44 254.41,-139.63"/>
<polygon fill="#000000" fill-opacity="0.200000" stroke="#000000" stroke-width="2" stroke-opacity="0.200000" points="255.79,-140.8 260.92,-137.04 254.56,-136.78 255.79,-140.8"/>
</g>
<!-- src/routes/VersionRoute.ts&#45;&gt;src/routes/utils.ts -->
<g id="edge9" class="edge">
<title>src/routes/VersionRoute.ts&#45;&gt;src/routes/utils.ts</title>
<path fill="none" stroke="#000000" stroke-width="2" stroke-opacity="0.200000" d="M242.2,-173.64C245.1,-172.04 247.85,-170.17 250.25,-168 258.04,-160.96 255.72,-154.23 261.89,-145.05"/>
<polygon fill="#000000" fill-opacity="0.200000" stroke="#000000" stroke-width="2" stroke-opacity="0.200000" points="264.41,-146.19 266.75,-140.28 261.24,-143.44 264.41,-146.19"/>
</g>
<!-- src/test.ts -->
<g id="node13" class="node">
<title>src/test.ts</title>
<g id="a_node13"><a xlink:href="src/test.ts" xlink:title="test.ts">
<path fill="#ddfeff" stroke="black" d="M230.71,-243.88C230.71,-243.88 188.54,-243.88 188.54,-243.88 185.58,-243.88 182.62,-240.92 182.62,-237.96 182.62,-237.96 182.62,-232.04 182.62,-232.04 182.62,-229.08 185.58,-226.12 188.54,-226.12 188.54,-226.12 230.71,-226.12 230.71,-226.12 233.67,-226.12 236.62,-229.08 236.62,-232.04 236.62,-232.04 236.62,-237.96 236.62,-237.96 236.62,-240.92 233.67,-243.88 230.71,-243.88"/>
<text text-anchor="start" x="198" y="-231.32" font-family="Helvetica,sans-Serif" font-size="9.00">test.ts</text>
</a>
</g>
</g>
<!-- src/test.ts&#45;&gt;src/complexUtils.ts -->
<g id="edge17" class="edge">
<title>src/test.ts&#45;&gt;src/complexUtils.ts</title>
<path fill="none" stroke="#000000" stroke-width="2" stroke-opacity="0.200000" d="M236.9,-239.69C262.7,-242.69 301.56,-242.62 325.25,-221 350.11,-198.32 317.9,-171.23 341.25,-147 347.69,-140.31 356.25,-135.98 365.17,-133.21"/>
<polygon fill="#000000" fill-opacity="0.200000" stroke="#000000" stroke-width="2" stroke-opacity="0.200000" points="366.5,-134.52 371.78,-130.99 365.45,-130.45 366.5,-134.52"/>
</g>
<!-- src/test.ts&#45;&gt;src/routes/utils.ts -->
<g id="edge18" class="edge">
<title>src/test.ts&#45;&gt;src/routes/utils.ts</title>
<path fill="none" stroke="#000000" stroke-width="2" stroke-opacity="0.200000" d="M236.98,-230.11C242.01,-228.06 246.78,-225.14 250.25,-221 271.31,-195.85 246.65,-174.28 262.17,-145.53"/>
<polygon fill="#000000" fill-opacity="0.200000" stroke="#000000" stroke-width="2" stroke-opacity="0.200000" points="264.52,-146.23 266.04,-140.06 261,-143.94 264.52,-146.23"/>
</g>
<!-- src/types/express&#45;serve&#45;static&#45;core/index.d.ts -->
<g id="node14" class="node">
<title>src/types/express&#45;serve&#45;static&#45;core/index.d.ts</title>
<g id="a_node14"><a xlink:href="src/types/express-serve-static-core/index.d.ts" xlink:title="index.d.ts">
<path fill="#ddfeff" stroke="black" d="M434.33,-219.88C434.33,-219.88 391.17,-219.88 391.17,-219.88 388.21,-219.88 385.25,-216.92 385.25,-213.96 385.25,-213.96 385.25,-208.04 385.25,-208.04 385.25,-205.08 388.21,-202.12 391.17,-202.12 391.17,-202.12 434.33,-202.12 434.33,-202.12 437.29,-202.12 440.25,-205.08 440.25,-208.04 440.25,-208.04 440.25,-213.96 440.25,-213.96 440.25,-216.92 437.29,-219.88 434.33,-219.88"/>
<text text-anchor="start" x="393.25" y="-207.32" font-family="Helvetica,sans-Serif" font-size="9.00">index.d.ts</text>
</a>
</g>
</g>
<!-- src/types/express&#45;serve&#45;static&#45;core/index.d.ts&#45;&gt;src/ServerStatusManager.ts -->
<g id="edge19" class="edge">
<title>src/types/express&#45;serve&#45;static&#45;core/index.d.ts&#45;&gt;src/ServerStatusManager.ts</title>
<path fill="none" stroke="#000000" stroke-width="2" stroke-opacity="0.200000" d="M440.59,-208.67C454.31,-206.85 471.06,-203.63 485.25,-198 505.22,-190.07 525.54,-176.27 539.54,-165.67"/>
<polygon fill="#000000" fill-opacity="0.200000" stroke="#000000" stroke-width="2" stroke-opacity="0.200000" points="541.17,-166.51 544.62,-161.17 538.6,-163.19 541.17,-166.51"/>
</g>
<!-- src/types/types.d.ts -->
<g id="node15" class="node">
<title>src/types/types.d.ts</title>
<g id="a_node15"><a xlink:href="src/types/types.d.ts" xlink:title="types.d.ts">
<path fill="#ccffcc" stroke="black" d="M433.96,-185.88C433.96,-185.88 391.54,-185.88 391.54,-185.88 388.58,-185.88 385.62,-182.92 385.62,-179.96 385.62,-179.96 385.62,-174.04 385.62,-174.04 385.62,-171.08 388.58,-168.12 391.54,-168.12 391.54,-168.12 433.96,-168.12 433.96,-168.12 436.92,-168.12 439.88,-171.08 439.88,-174.04 439.88,-174.04 439.88,-179.96 439.88,-179.96 439.88,-182.92 436.92,-185.88 433.96,-185.88"/>
<text text-anchor="start" x="393.62" y="-173.32" font-family="Helvetica,sans-Serif" font-size="9.00">types.d.ts</text>
</a>
</g>
</g>
</g>
</svg>
