<?xml version="1.0" encoding="UTF-8" standalone="no"?>
<!DOCTYPE svg PUBLIC "-//W3C//DTD SVG 1.1//EN"
 "http://www.w3.org/Graphics/SVG/1.1/DTD/svg11.dtd">
<!-- Generated by graphviz version 8.0.5 (20230430.1635)
 -->
<!-- Title: dependency&#45;cruiser output Pages: 1 -->
<svg width="482pt" height="386pt"
 viewBox="0.00 0.00 481.75 386.00" xmlns="http://www.w3.org/2000/svg" xmlns:xlink="http://www.w3.org/1999/xlink">
<g id="graph0" class="graph" transform="scale(1 1) rotate(0) translate(4 382)">
<title>dependency&#45;cruiser output</title>
<polygon fill="white" stroke="none" points="-4,4 -4,-382 477.75,-382 477.75,4 -4,4"/>
<g id="clust1" class="cluster">
<title>cluster_src</title>
<path fill="#ffffff" stroke="black" stroke-width="2" d="M20,-8C20,-8 453.75,-8 453.75,-8 459.75,-8 465.75,-14 465.75,-20 465.75,-20 465.75,-358 465.75,-358 465.75,-364 459.75,-370 453.75,-370 453.75,-370 20,-370 20,-370 14,-370 8,-364 8,-358 8,-358 8,-20 8,-20 8,-14 14,-8 20,-8"/>
<text text-anchor="middle" x="236.88" y="-357.45" font-family="Helvetica,sans-Serif" font-weight="bold" font-size="9.00">src</text>
</g>
<g id="clust2" class="cluster">
<title>cluster_src/routes</title>
<path fill="#ffffff" stroke="black" stroke-width="2" d="M28.12,-132C28.12,-132 239.75,-132 239.75,-132 245.75,-132 251.75,-138 251.75,-144 251.75,-144 251.75,-292 251.75,-292 251.75,-298 245.75,-304 239.75,-304 239.75,-304 28.13,-304 28.13,-304 22.13,-304 16.12,-298 16.12,-292 16.12,-292 16.12,-144 16.12,-144 16.12,-138 22.12,-132 28.12,-132"/>
<text text-anchor="middle" x="133.94" y="-291.45" font-family="Helvetica,sans-Serif" font-weight="bold" font-size="9.00">routes</text>
</g>
<g id="clust3" class="cluster">
<title>cluster_src/types</title>
<path fill="#ffffff" stroke="black" stroke-width="2" d="M28,-72C28,-72 74.25,-72 74.25,-72 80.25,-72 86.25,-78 86.25,-84 86.25,-84 86.25,-112 86.25,-112 86.25,-118 80.25,-124 74.25,-124 74.25,-124 28,-124 28,-124 22,-124 16,-118 16,-112 16,-112 16,-84 16,-84 16,-78 22,-72 28,-72"/>
<text text-anchor="middle" x="51.12" y="-111.45" font-family="Helvetica,sans-Serif" font-weight="bold" font-size="9.00">types</text>
</g>
<!-- src/Discord.ts -->
<g id="node1" class="node">
<title>src/Discord.ts</title>
<g id="a_node1"><a xlink:href="src/Discord.ts" xlink:title="Discord.ts">
<path fill="#ddfeff" stroke="black" d="M239.08,-123.88C239.08,-123.88 194.42,-123.88 194.42,-123.88 191.46,-123.88 188.5,-120.92 188.5,-117.96 188.5,-117.96 188.5,-112.04 188.5,-112.04 188.5,-109.08 191.46,-106.12 194.42,-106.12 194.42,-106.12 239.08,-106.12 239.08,-106.12 242.04,-106.12 245,-109.08 245,-112.04 245,-112.04 245,-117.96 245,-117.96 245,-120.92 242.04,-123.88 239.08,-123.88"/>
<text text-anchor="start" x="196.5" y="-111.33" font-family="Helvetica,sans-Serif" font-size="9.00">Discord.ts</text>
</a>
</g>
</g>
<!-- src/scrapeUtils.ts -->
<g id="node2" class="node">
<title>src/scrapeUtils.ts</title>
<g id="a_node2"><a xlink:href="src/scrapeUtils.ts" xlink:title="scrapeUtils.ts">
<path fill="#ddfeff" stroke="black" d="M324.58,-193.88C324.58,-193.88 265.67,-193.88 265.67,-193.88 262.71,-193.88 259.75,-190.92 259.75,-187.96 259.75,-187.96 259.75,-182.04 259.75,-182.04 259.75,-179.08 262.71,-176.12 265.67,-176.12 265.67,-176.12 324.58,-176.12 324.58,-176.12 327.54,-176.12 330.5,-179.08 330.5,-182.04 330.5,-182.04 330.5,-187.96 330.5,-187.96 330.5,-190.92 327.54,-193.88 324.58,-193.88"/>
<text text-anchor="start" x="267.75" y="-181.32" font-family="Helvetica,sans-Serif" font-size="9.00">scrapeUtils.ts</text>
</a>
</g>
</g>
<!-- src/Discord.ts&#45;&gt;src/scrapeUtils.ts -->
<g id="edge1" class="edge">
<title>src/Discord.ts&#45;&gt;src/scrapeUtils.ts</title>
<path fill="none" stroke="#000000" stroke-width="2" stroke-opacity="0.200000" d="M245.08,-124.28C247.47,-125.66 249.74,-127.23 251.75,-129 257.13,-133.73 255.69,-137.1 259.75,-143 265.96,-152.03 273.63,-161.53 280.15,-169.21"/>
<polygon fill="#000000" fill-opacity="0.200000" stroke="#000000" stroke-width="2" stroke-opacity="0.200000" points="279.22,-170.51 284.73,-173.68 282.4,-167.77 279.22,-170.51"/>
</g>
<!-- src/ServerStatusManager.ts -->
<g id="node3" class="node">
<title>src/ServerStatusManager.ts</title>
<g id="a_node3"><a xlink:href="src/ServerStatusManager.ts" xlink:title="ServerStatusManager.ts">
<path fill="#ddfeff" stroke="black" d="M451.83,-193.88C451.83,-193.88 349.42,-193.88 349.42,-193.88 346.46,-193.88 343.5,-190.92 343.5,-187.96 343.5,-187.96 343.5,-182.04 343.5,-182.04 343.5,-179.08 346.46,-176.12 349.42,-176.12 349.42,-176.12 451.83,-176.12 451.83,-176.12 454.79,-176.12 457.75,-179.08 457.75,-182.04 457.75,-182.04 457.75,-187.96 457.75,-187.96 457.75,-190.92 454.79,-193.88 451.83,-193.88"/>
<text text-anchor="start" x="351.5" y="-181.32" font-family="Helvetica,sans-Serif" font-size="9.00">ServerStatusManager.ts</text>
</a>
</g>
</g>
<!-- src/Discord.ts&#45;&gt;src/ServerStatusManager.ts -->
<g id="edge2" class="edge">
<title>src/Discord.ts&#45;&gt;src/ServerStatusManager.ts</title>
<path fill="none" stroke="#000000" stroke-width="2" stroke-opacity="0.200000" d="M241.9,-124.3C274.11,-136.69 331.22,-158.67 367.16,-172.5"/>
<polygon fill="#000000" fill-opacity="0.200000" stroke="#000000" stroke-width="2" stroke-opacity="0.200000" points="367.02,-174.47 373.37,-174.67 368.53,-170.55 367.02,-174.47"/>
</g>
<!-- src/scrapeUtils.ts&#45;&gt;src/ServerStatusManager.ts -->
<g id="edge23" class="edge">
<title>src/scrapeUtils.ts&#45;&gt;src/ServerStatusManager.ts</title>
<g id="a_edge23"><a xlink:title="no&#45;circular">
<path fill="none" stroke="orange" stroke-width="2" d="M330.88,-180.72C332,-180.69 333.14,-180.67 334.28,-180.64"/>
<polygon fill="none" stroke="orange" stroke-width="2" points="334.23,-182.7 340.2,-180.52 334.17,-178.5 334.23,-182.7"/>
</a>
</g>
<text text-anchor="middle" x="355.98" y="-172.09" font-family="Helvetica,sans-Serif" font-size="9.00" fill="orange">no&#45;circular</text>
</g>
<!-- src/ServerStatusManager.ts&#45;&gt;src/scrapeUtils.ts -->
<g id="edge3" class="edge">
<title>src/ServerStatusManager.ts&#45;&gt;src/scrapeUtils.ts</title>
<g id="a_edge3"><a xlink:title="no&#45;circular">
<path fill="none" stroke="orange" stroke-width="2" d="M343.2,-189.48C342.02,-189.48 340.85,-189.46 339.68,-189.45"/>
<polygon fill="none" stroke="orange" stroke-width="2" points="339.92,-187.29 333.88,-189.28 339.83,-191.49 339.92,-187.29"/>
</a>
</g>
<text text-anchor="middle" x="317.99" y="-190.65" font-family="Helvetica,sans-Serif" font-size="9.00" fill="orange">no&#45;circular</text>
</g>
<!-- src/index.ts -->
<g id="node4" class="node">
<title>src/index.ts</title>
<g id="a_node4"><a xlink:href="src/index.ts" xlink:title="index.ts">
<path fill="#ddfeff" stroke="black" d="M237.83,-329.88C237.83,-329.88 195.67,-329.88 195.67,-329.88 192.71,-329.88 189.75,-326.92 189.75,-323.96 189.75,-323.96 189.75,-318.04 189.75,-318.04 189.75,-315.08 192.71,-312.12 195.67,-312.12 195.67,-312.12 237.83,-312.12 237.83,-312.12 240.79,-312.12 243.75,-315.08 243.75,-318.04 243.75,-318.04 243.75,-323.96 243.75,-323.96 243.75,-326.92 240.79,-329.88 237.83,-329.88"/>
<text text-anchor="start" x="201" y="-317.32" font-family="Helvetica,sans-Serif" font-size="9.00">index.ts</text>
</a>
</g>
</g>
<!-- src/index.ts&#45;&gt;src/ServerStatusManager.ts -->
<g id="edge5" class="edge">
<title>src/index.ts&#45;&gt;src/ServerStatusManager.ts</title>
<path fill="none" stroke="#000000" stroke-width="2" stroke-opacity="0.200000" d="M242.69,-311.75C245.81,-310.3 248.9,-308.71 251.75,-307 304.94,-275.1 359.05,-225 384.55,-200.1"/>
<polygon fill="#000000" fill-opacity="0.200000" stroke="#000000" stroke-width="2" stroke-opacity="0.200000" points="385.89,-201.76 388.69,-196.05 382.94,-198.77 385.89,-201.76"/>
</g>
<!-- src/routes/index.ts -->
<g id="node5" class="node">
<title>src/routes/index.ts</title>
<g id="a_node5"><a xlink:href="src/routes/index.ts" xlink:title="index.ts">
<path fill="#ddfeff" stroke="black" d="M72.21,-232.88C72.21,-232.88 30.04,-232.88 30.04,-232.88 27.08,-232.88 24.12,-229.92 24.12,-226.96 24.12,-226.96 24.12,-221.04 24.12,-221.04 24.12,-218.08 27.08,-215.12 30.04,-215.12 30.04,-215.12 72.21,-215.12 72.21,-215.12 75.17,-215.12 78.12,-218.08 78.12,-221.04 78.12,-221.04 78.12,-226.96 78.12,-226.96 78.12,-229.92 75.17,-232.88 72.21,-232.88"/>
<text text-anchor="start" x="35.38" y="-220.32" font-family="Helvetica,sans-Serif" font-size="9.00">index.ts</text>
</a>
</g>
</g>
<!-- src/index.ts&#45;&gt;src/routes/index.ts -->
<g id="edge4" class="edge">
<title>src/index.ts&#45;&gt;src/routes/index.ts</title>
<g id="a_edge4"><a xlink:title="no&#45;circular">
<path fill="none" stroke="orange" stroke-width="2" d="M189.36,-318.03C163.14,-313.98 122.82,-304.7 94.25,-284 78.89,-272.87 67.13,-254.36 59.99,-240.83"/>
<polygon fill="none" stroke="orange" stroke-width="2" points="61.72,-239.59 57.15,-235.17 57.96,-241.47 61.72,-239.59"/>
</a>
</g>
<text text-anchor="middle" x="91.15" y="-286.7" font-family="Helvetica,sans-Serif" font-size="9.00" fill="orange">no&#45;circular</text>
</g>
<!-- src/routes/BadCompany.ts -->
<g id="node7" class="node">
<title>src/routes/BadCompany.ts</title>
<g id="a_node7"><a xlink:href="src/routes/BadCompany.ts" xlink:title="BadCompany.ts">
<path fill="#ddfeff" stroke="black" d="M169.58,-277.88C169.58,-277.88 100.17,-277.88 100.17,-277.88 97.21,-277.88 94.25,-274.92 94.25,-271.96 94.25,-271.96 94.25,-266.04 94.25,-266.04 94.25,-263.08 97.21,-260.12 100.17,-260.12 100.17,-260.12 169.58,-260.12 169.58,-260.12 172.54,-260.12 175.5,-263.08 175.5,-266.04 175.5,-266.04 175.5,-271.96 175.5,-271.96 175.5,-274.92 172.54,-277.88 169.58,-277.88"/>
<text text-anchor="start" x="102.25" y="-265.32" font-family="Helvetica,sans-Serif" font-size="9.00">BadCompany.ts</text>
</a>
</g>
</g>
<!-- src/routes/index.ts&#45;&gt;src/routes/BadCompany.ts -->
<g id="edge18" class="edge">
<title>src/routes/index.ts&#45;&gt;src/routes/BadCompany.ts</title>
<path fill="none" stroke="#000000" stroke-width="2" stroke-opacity="0.200000" d="M63.4,-233.25C71.6,-239.66 83.16,-248.08 94.25,-254 95.71,-254.78 97.22,-255.54 98.76,-256.27"/>
<polygon fill="#000000" fill-opacity="0.200000" stroke="#000000" stroke-width="2" stroke-opacity="0.200000" points="98.27,-258.24 104.61,-258.74 99.97,-254.39 98.27,-258.24"/>
</g>
<!-- src/routes/Channel.ts -->
<g id="node8" class="node">
<title>src/routes/Channel.ts</title>
<g id="a_node8"><a xlink:href="src/routes/Channel.ts" xlink:title="Channel.ts">
<path fill="#ddfeff" stroke="black" d="M159.08,-247.88C159.08,-247.88 110.67,-247.88 110.67,-247.88 107.71,-247.88 104.75,-244.92 104.75,-241.96 104.75,-241.96 104.75,-236.04 104.75,-236.04 104.75,-233.08 107.71,-230.12 110.67,-230.12 110.67,-230.12 159.08,-230.12 159.08,-230.12 162.04,-230.12 165,-233.08 165,-236.04 165,-236.04 165,-241.96 165,-241.96 165,-244.92 162.04,-247.88 159.08,-247.88"/>
<text text-anchor="start" x="112.75" y="-235.32" font-family="Helvetica,sans-Serif" font-size="9.00">Channel.ts</text>
</a>
</g>
</g>
<!-- src/routes/index.ts&#45;&gt;src/routes/Channel.ts -->
<g id="edge19" class="edge">
<title>src/routes/index.ts&#45;&gt;src/routes/Channel.ts</title>
<g id="a_edge19"><a xlink:title="no&#45;circular">
<path fill="none" stroke="orange" stroke-width="2" d="M78.44,-228.83C84.02,-229.85 90.02,-230.95 95.94,-232.04"/>
<polygon fill="none" stroke="orange" stroke-width="2" points="96.21,-234.59 102.49,-233.61 96.97,-230.46 96.21,-234.59"/>
</a>
</g>
<text text-anchor="middle" x="69.74" y="-232.42" font-family="Helvetica,sans-Serif" font-size="9.00" fill="orange">no&#45;circular</text>
</g>
<!-- src/routes/Directory.ts -->
<g id="node9" class="node">
<title>src/routes/Directory.ts</title>
<g id="a_node9"><a xlink:href="src/routes/Directory.ts" xlink:title="Directory.ts">
<path fill="#ddfeff" stroke="black" d="M159.83,-187.88C159.83,-187.88 109.92,-187.88 109.92,-187.88 106.96,-187.88 104,-184.92 104,-181.96 104,-181.96 104,-176.04 104,-176.04 104,-173.08 106.96,-170.12 109.92,-170.12 109.92,-170.12 159.83,-170.12 159.83,-170.12 162.79,-170.12 165.75,-173.08 165.75,-176.04 165.75,-176.04 165.75,-181.96 165.75,-181.96 165.75,-184.92 162.79,-187.88 159.83,-187.88"/>
<text text-anchor="start" x="112" y="-175.32" font-family="Helvetica,sans-Serif" font-size="9.00">Directory.ts</text>
</a>
</g>
</g>
<!-- src/routes/index.ts&#45;&gt;src/routes/Directory.ts -->
<g id="edge20" class="edge">
<title>src/routes/index.ts&#45;&gt;src/routes/Directory.ts</title>
<g id="a_edge20"><a xlink:title="no&#45;circular">
<path fill="none" stroke="orange" stroke-width="2" d="M63.4,-214.75C71.6,-208.34 83.16,-199.92 94.25,-194 95.71,-193.22 97.22,-192.46 98.76,-191.73"/>
<polygon fill="none" stroke="orange" stroke-width="2" points="99.97,-193.61 104.61,-189.26 98.27,-189.76 99.97,-193.61"/>
</a>
</g>
<text text-anchor="middle" x="62.6" y="-191.26" font-family="Helvetica,sans-Serif" font-size="9.00" fill="orange">no&#45;circular</text>
</g>
<!-- src/routes/IndexRouter.ts -->
<g id="node10" class="node">
<title>src/routes/IndexRouter.ts</title>
<g id="a_node10"><a xlink:href="src/routes/IndexRouter.ts" xlink:title="IndexRouter.ts">
<path fill="#ddfeff" stroke="black" d="M166.58,-217.88C166.58,-217.88 103.17,-217.88 103.17,-217.88 100.21,-217.88 97.25,-214.92 97.25,-211.96 97.25,-211.96 97.25,-206.04 97.25,-206.04 97.25,-203.08 100.21,-200.12 103.17,-200.12 103.17,-200.12 166.58,-200.12 166.58,-200.12 169.54,-200.12 172.5,-203.08 172.5,-206.04 172.5,-206.04 172.5,-211.96 172.5,-211.96 172.5,-214.92 169.54,-217.88 166.58,-217.88"/>
<text text-anchor="start" x="105.25" y="-205.32" font-family="Helvetica,sans-Serif" font-size="9.00">IndexRouter.ts</text>
</a>
</g>
</g>
<!-- src/routes/index.ts&#45;&gt;src/routes/IndexRouter.ts -->
<g id="edge21" class="edge">
<title>src/routes/index.ts&#45;&gt;src/routes/IndexRouter.ts</title>
<g id="a_edge21"><a xlink:title="no&#45;circular">
<path fill="none" stroke="orange" stroke-width="2" d="M78.44,-219.17C81.57,-218.6 84.82,-218 88.12,-217.4"/>
<polygon fill="none" stroke="orange" stroke-width="2" points="89.37,-218.93 94.89,-215.79 88.61,-214.8 89.37,-218.93"/>
</a>
</g>
<text text-anchor="middle" x="109.25" y="-218.71" font-family="Helvetica,sans-Serif" font-size="9.00" fill="orange">no&#45;circular</text>
</g>
<!-- src/routes/Url.ts -->
<g id="node11" class="node">
<title>src/routes/Url.ts</title>
<g id="a_node11"><a xlink:href="src/routes/Url.ts" xlink:title="Url.ts">
<path fill="#ddfeff" stroke="black" d="M155.96,-157.88C155.96,-157.88 113.79,-157.88 113.79,-157.88 110.83,-157.88 107.88,-154.92 107.88,-151.96 107.88,-151.96 107.88,-146.04 107.88,-146.04 107.88,-143.08 110.83,-140.12 113.79,-140.12 113.79,-140.12 155.96,-140.12 155.96,-140.12 158.92,-140.12 161.88,-143.08 161.88,-146.04 161.88,-146.04 161.88,-151.96 161.88,-151.96 161.88,-154.92 158.92,-157.88 155.96,-157.88"/>
<text text-anchor="start" x="124.38" y="-145.32" font-family="Helvetica,sans-Serif" font-size="9.00">Url.ts</text>
</a>
</g>
</g>
<!-- src/routes/index.ts&#45;&gt;src/routes/Url.ts -->
<g id="edge22" class="edge">
<title>src/routes/index.ts&#45;&gt;src/routes/Url.ts</title>
<g id="a_edge22"><a xlink:title="no&#45;circular">
<path fill="none" stroke="orange" stroke-width="2" d="M56.27,-214.99C62.68,-202.01 76.16,-178.05 94.25,-164 95.98,-162.66 97.84,-161.43 99.78,-160.29"/>
<polygon fill="none" stroke="orange" stroke-width="2" points="101.11,-161.98 105.54,-157.42 99.24,-158.22 101.11,-161.98"/>
</a>
</g>
<text text-anchor="middle" x="55.24" y="-173.03" font-family="Helvetica,sans-Serif" font-size="9.00" fill="orange">no&#45;circular</text>
</g>
<!-- src/mockup.ts -->
<g id="node6" class="node">
<title>src/mockup.ts</title>
<g id="a_node6"><a xlink:href="src/mockup.ts" xlink:title="no&#45;orphans">
<path fill="#ccffcc" stroke="orange" d="M73.83,-63.88C73.83,-63.88 28.42,-63.88 28.42,-63.88 25.46,-63.88 22.5,-60.92 22.5,-57.96 22.5,-57.96 22.5,-52.04 22.5,-52.04 22.5,-49.08 25.46,-46.12 28.42,-46.12 28.42,-46.12 73.83,-46.12 73.83,-46.12 76.79,-46.12 79.75,-49.08 79.75,-52.04 79.75,-52.04 79.75,-57.96 79.75,-57.96 79.75,-60.92 76.79,-63.88 73.83,-63.88"/>
<text text-anchor="start" x="30.5" y="-51.33" font-family="Helvetica,sans-Serif" font-size="9.00" fill="orange">mockup.ts</text>
</a>
</g>
</g>
<!-- src/routes/Channel.ts&#45;&gt;src/scrapeUtils.ts -->
<g id="edge7" class="edge">
<title>src/routes/Channel.ts&#45;&gt;src/scrapeUtils.ts</title>
<path fill="none" stroke="#000000" stroke-width="2" stroke-opacity="0.200000" d="M165.49,-246.1C169.3,-248.11 172.81,-250.69 175.5,-254 198.79,-282.62 160.44,-312.04 188.5,-336 209.88,-354.26 229.35,-352.98 251.75,-336 273.16,-319.77 286.75,-238.82 291.84,-202.58"/>
<polygon fill="#000000" fill-opacity="0.200000" stroke="#000000" stroke-width="2" stroke-opacity="0.200000" points="294.28,-202.25 293.01,-196.02 290.12,-201.68 294.28,-202.25"/>
</g>
<!-- src/routes/Channel.ts&#45;&gt;src/index.ts -->
<g id="edge6" class="edge">
<title>src/routes/Channel.ts&#45;&gt;src/index.ts</title>
<g id="a_edge6"><a xlink:title="no&#45;circular">
<path fill="none" stroke="orange" stroke-width="2" d="M165.24,-246.31C169.09,-248.29 172.67,-250.81 175.5,-254 189.88,-270.24 176.91,-284.6 188.25,-304.43"/>
<polygon fill="none" stroke="orange" stroke-width="2" points="187.19,-305.99 192.36,-309.68 190.62,-303.57 187.19,-305.99"/>
</a>
</g>
<text text-anchor="middle" x="204.77" y="-269.23" font-family="Helvetica,sans-Serif" font-size="9.00" fill="orange">no&#45;circular</text>
</g>
<!-- src/routes/Directory.ts&#45;&gt;src/Discord.ts -->
<g id="edge8" class="edge">
<title>src/routes/Directory.ts&#45;&gt;src/Discord.ts</title>
<path fill="none" stroke="#000000" stroke-width="2" stroke-opacity="0.200000" d="M166.12,-170.77C169.57,-168.94 172.8,-166.71 175.5,-164 185.55,-153.88 179.79,-144.47 188.35,-131.17"/>
<polygon fill="#000000" fill-opacity="0.200000" stroke="#000000" stroke-width="2" stroke-opacity="0.200000" points="190.73,-132.3 192.83,-126.3 187.45,-129.68 190.73,-132.3"/>
</g>
<!-- src/routes/Directory.ts&#45;&gt;src/scrapeUtils.ts -->
<g id="edge10" class="edge">
<title>src/routes/Directory.ts&#45;&gt;src/scrapeUtils.ts</title>
<path fill="none" stroke="#000000" stroke-width="2" stroke-opacity="0.200000" d="M166.01,-180.14C189.94,-181.05 223.73,-182.33 250.59,-183.35"/>
<polygon fill="#000000" fill-opacity="0.200000" stroke="#000000" stroke-width="2" stroke-opacity="0.200000" points="250.34,-185.56 256.42,-183.68 250.5,-181.36 250.34,-185.56"/>
</g>
<!-- src/routes/Directory.ts&#45;&gt;src/index.ts -->
<g id="edge9" class="edge">
<title>src/routes/Directory.ts&#45;&gt;src/index.ts</title>
<g id="a_edge9"><a xlink:title="no&#45;circular">
<path fill="none" stroke="orange" stroke-width="2" d="M166.01,-186.21C169.65,-188.2 172.97,-190.75 175.5,-194 204.87,-231.7 164.62,-261.95 188.13,-304.2"/>
<polygon fill="none" stroke="orange" stroke-width="2" points="186.88,-305.72 191.87,-309.65 190.42,-303.47 186.88,-305.72"/>
</a>
</g>
<text text-anchor="middle" x="205.77" y="-238.79" font-family="Helvetica,sans-Serif" font-size="9.00" fill="orange">no&#45;circular</text>
</g>
<!-- src/routes/IndexRouter.ts&#45;&gt;src/Discord.ts -->
<g id="edge11" class="edge">
<title>src/routes/IndexRouter.ts&#45;&gt;src/Discord.ts</title>
<path fill="none" stroke="#000000" stroke-width="2" stroke-opacity="0.200000" d="M168.84,-199.78C171.32,-198.15 173.6,-196.24 175.5,-194 192.84,-173.55 174.68,-155.96 188.27,-131.66"/>
<polygon fill="#000000" fill-opacity="0.200000" stroke="#000000" stroke-width="2" stroke-opacity="0.200000" points="190.65,-132.4 192.28,-126.26 187.18,-130.04 190.65,-132.4"/>
</g>
<!-- src/routes/IndexRouter.ts&#45;&gt;src/scrapeUtils.ts -->
<g id="edge13" class="edge">
<title>src/routes/IndexRouter.ts&#45;&gt;src/scrapeUtils.ts</title>
<path fill="none" stroke="#000000" stroke-width="2" stroke-opacity="0.200000" d="M172.98,-203.37C196.25,-199.84 226.35,-195.28 250.72,-191.58"/>
<polygon fill="#000000" fill-opacity="0.200000" stroke="#000000" stroke-width="2" stroke-opacity="0.200000" points="251.81,-193.24 257.42,-190.26 251.18,-189.09 251.81,-193.24"/>
</g>
<!-- src/routes/IndexRouter.ts&#45;&gt;src/index.ts -->
<g id="edge12" class="edge">
<title>src/routes/IndexRouter.ts&#45;&gt;src/index.ts</title>
<g id="a_edge12"><a xlink:title="no&#45;circular">
<path fill="none" stroke="orange" stroke-width="2" d="M168.94,-218.14C171.4,-219.78 173.65,-221.72 175.5,-224 197.39,-250.95 170.91,-273.37 188.43,-304.57"/>
<polygon fill="none" stroke="orange" stroke-width="2" points="187.15,-305.95 192.2,-309.8 190.65,-303.64 187.15,-305.95"/>
</a>
</g>
<text text-anchor="middle" x="204.99" y="-256.86" font-family="Helvetica,sans-Serif" font-size="9.00" fill="orange">no&#45;circular</text>
</g>
<!-- src/routes/Url.ts&#45;&gt;src/Discord.ts -->
<g id="edge14" class="edge">
<title>src/routes/Url.ts&#45;&gt;src/Discord.ts</title>
<path fill="none" stroke="#000000" stroke-width="2" stroke-opacity="0.200000" d="M157.7,-139.71C166.33,-136.04 176.39,-131.75 185.69,-127.8"/>
<polygon fill="#000000" fill-opacity="0.200000" stroke="#000000" stroke-width="2" stroke-opacity="0.200000" points="187.25,-129.56 191.95,-125.28 185.61,-125.7 187.25,-129.56"/>
</g>
<!-- src/routes/Url.ts&#45;&gt;src/scrapeUtils.ts -->
<g id="edge16" class="edge">
<title>src/routes/Url.ts&#45;&gt;src/scrapeUtils.ts</title>
<path fill="none" stroke="#000000" stroke-width="2" stroke-opacity="0.200000" d="M162.27,-156.98C170.62,-159.38 179.91,-161.93 188.5,-164 208.9,-168.93 231.71,-173.57 250.9,-177.23"/>
<polygon fill="#000000" fill-opacity="0.200000" stroke="#000000" stroke-width="2" stroke-opacity="0.200000" points="251.44,-179.84 257.72,-178.89 252.21,-175.72 251.44,-179.84"/>
</g>
<!-- src/routes/Url.ts&#45;&gt;src/index.ts -->
<g id="edge15" class="edge">
<title>src/routes/Url.ts&#45;&gt;src/index.ts</title>
<g id="a_edge15"><a xlink:title="no&#45;circular">
<path fill="none" stroke="orange" stroke-width="2" d="M162.08,-154.22C167.25,-156.42 172.12,-159.55 175.5,-164 193.37,-187.52 174,-267.38 188.62,-303.81"/>
<polygon fill="none" stroke="orange" stroke-width="2" points="187.15,-305.38 191.83,-309.69 190.85,-303.4 187.15,-305.38"/>
</a>
</g>
<text text-anchor="middle" x="161.53" y="-220.47" font-family="Helvetica,sans-Serif" font-size="9.00" fill="orange">no&#45;circular</text>
</g>
<!-- src/routes/utils.ts -->
<g id="node12" class="node">
<title>src/routes/utils.ts</title>
<g id="a_node12"><a xlink:href="src/routes/utils.ts" xlink:title="utils.ts">
<path fill="#ddfeff" stroke="black" d="M237.83,-157.88C237.83,-157.88 195.67,-157.88 195.67,-157.88 192.71,-157.88 189.75,-154.92 189.75,-151.96 189.75,-151.96 189.75,-146.04 189.75,-146.04 189.75,-143.08 192.71,-140.12 195.67,-140.12 195.67,-140.12 237.83,-140.12 237.83,-140.12 240.79,-140.12 243.75,-143.08 243.75,-146.04 243.75,-146.04 243.75,-151.96 243.75,-151.96 243.75,-154.92 240.79,-157.88 237.83,-157.88"/>
<text text-anchor="start" x="204" y="-145.32" font-family="Helvetica,sans-Serif" font-size="9.00">utils.ts</text>
</a>
</g>
</g>
<!-- src/routes/Url.ts&#45;&gt;src/routes/utils.ts -->
<g id="edge17" class="edge">
<title>src/routes/Url.ts&#45;&gt;src/routes/utils.ts</title>
<path fill="none" stroke="#000000" stroke-width="2" stroke-opacity="0.200000" d="M162.03,-149C167.9,-149 174.22,-149 180.39,-149"/>
<polygon fill="#000000" fill-opacity="0.200000" stroke="#000000" stroke-width="2" stroke-opacity="0.200000" points="180.26,-151.1 186.26,-149 180.26,-146.9 180.26,-151.1"/>
</g>
<!-- src/test.ts -->
<g id="node13" class="node">
<title>src/test.ts</title>
<g id="a_node13"><a xlink:href="src/test.ts" xlink:title="no&#45;orphans">
<path fill="#ccffcc" stroke="orange" d="M72.21,-33.88C72.21,-33.88 30.04,-33.88 30.04,-33.88 27.08,-33.88 24.12,-30.92 24.12,-27.96 24.12,-27.96 24.12,-22.04 24.12,-22.04 24.12,-19.08 27.08,-16.12 30.04,-16.12 30.04,-16.12 72.21,-16.12 72.21,-16.12 75.17,-16.12 78.12,-19.08 78.12,-22.04 78.12,-22.04 78.12,-27.96 78.12,-27.96 78.12,-30.92 75.17,-33.88 72.21,-33.88"/>
<text text-anchor="start" x="39.5" y="-21.32" font-family="Helvetica,sans-Serif" font-size="9.00" fill="orange">test.ts</text>
</a>
</g>
</g>
<!-- src/types/types.d.ts -->
<g id="node14" class="node">
<title>src/types/types.d.ts</title>
<g id="a_node14"><a xlink:href="src/types/types.d.ts" xlink:title="types.d.ts">
<path fill="#ccffcc" stroke="black" d="M72.33,-97.88C72.33,-97.88 29.92,-97.88 29.92,-97.88 26.96,-97.88 24,-94.92 24,-91.96 24,-91.96 24,-86.04 24,-86.04 24,-83.08 26.96,-80.12 29.92,-80.12 29.92,-80.12 72.33,-80.12 72.33,-80.12 75.29,-80.12 78.25,-83.08 78.25,-86.04 78.25,-86.04 78.25,-91.96 78.25,-91.96 78.25,-94.92 75.29,-97.88 72.33,-97.88"/>
<text text-anchor="start" x="32" y="-85.33" font-family="Helvetica,sans-Serif" font-size="9.00">types.d.ts</text>
</a>
</g>
</g>
</g>
</svg>
