<?xml version="1.0" encoding="UTF-8" standalone="no"?>
<!DOCTYPE svg PUBLIC "-//W3C//DTD SVG 1.1//EN"
 "http://www.w3.org/Graphics/SVG/1.1/DTD/svg11.dtd">
<!-- Generated by graphviz version 8.0.5 (20230430.1635)
 -->
<!-- Title: dependency&#45;cruiser output Pages: 1 -->
<svg width="640pt" height="275pt"
 viewBox="0.00 0.00 639.75 275.32" xmlns="http://www.w3.org/2000/svg" xmlns:xlink="http://www.w3.org/1999/xlink">
<g id="graph0" class="graph" transform="scale(1 1) rotate(0) translate(4 271.32)">
<title>dependency&#45;cruiser output</title>
<polygon fill="white" stroke="none" points="-4,4 -4,-271.32 635.75,-271.32 635.75,4 -4,4"/>
<g id="clust1" class="cluster">
<title>cluster_src</title>
<path fill="#ffffff" stroke="black" stroke-width="2" d="M20,-8C20,-8 611.75,-8 611.75,-8 617.75,-8 623.75,-14 623.75,-20 623.75,-20 623.75,-238 623.75,-238 623.75,-244 617.75,-250 611.75,-250 611.75,-250 20,-250 20,-250 14,-250 8,-244 8,-238 8,-238 8,-20 8,-20 8,-14 14,-8 20,-8"/>
<text text-anchor="middle" x="315.88" y="-237.45" font-family="Helvetica,sans-Serif" font-weight="bold" font-size="9.00">src</text>
</g>
<g id="clust2" class="cluster">
<title>cluster_src/archive</title>
<path fill="#ffffff" stroke="black" stroke-width="2" d="M28,-167C28,-167 74,-167 74,-167 80,-167 86,-173 86,-179 86,-179 86,-207 86,-207 86,-213 80,-219 74,-219 74,-219 28,-219 28,-219 22,-219 16,-213 16,-207 16,-207 16,-179 16,-179 16,-173 22,-167 28,-167"/>
<text text-anchor="middle" x="51" y="-206.45" font-family="Helvetica,sans-Serif" font-weight="bold" font-size="9.00">archive</text>
</g>
<g id="clust3" class="cluster">
<title>cluster_src/routes</title>
<path fill="#ffffff" stroke="black" stroke-width="2" d="M106,-42C106,-42 313.25,-42 313.25,-42 319.25,-42 325.25,-48 325.25,-54 325.25,-54 325.25,-202 325.25,-202 325.25,-208 319.25,-214 313.25,-214 313.25,-214 106,-214 106,-214 100,-214 94,-208 94,-202 94,-202 94,-54 94,-54 94,-48 100,-42 106,-42"/>
<text text-anchor="middle" x="209.62" y="-201.45" font-family="Helvetica,sans-Serif" font-weight="bold" font-size="9.00">routes</text>
</g>
<g id="clust4" class="cluster">
<title>cluster_src/types</title>
<path fill="#ffffff" stroke="black" stroke-width="2" d="M353.25,-112C353.25,-112 473.25,-112 473.25,-112 479.25,-112 485.25,-118 485.25,-124 485.25,-124 485.25,-212 485.25,-212 485.25,-218 479.25,-224 473.25,-224 473.25,-224 353.25,-224 353.25,-224 347.25,-224 341.25,-218 341.25,-212 341.25,-212 341.25,-124 341.25,-124 341.25,-118 347.25,-112 353.25,-112"/>
<text text-anchor="middle" x="413.25" y="-211.45" font-family="Helvetica,sans-Serif" font-weight="bold" font-size="9.00">types</text>
</g>
<g id="clust5" class="cluster">
<title>cluster_src/types/express&#45;serve&#45;static&#45;core</title>
<path fill="#ffffff" stroke="black" stroke-width="2" d="M361.25,-146C361.25,-146 465.25,-146 465.25,-146 471.25,-146 477.25,-152 477.25,-158 477.25,-158 477.25,-186 477.25,-186 477.25,-192 471.25,-198 465.25,-198 465.25,-198 361.25,-198 361.25,-198 355.25,-198 349.25,-192 349.25,-186 349.25,-186 349.25,-158 349.25,-158 349.25,-152 355.25,-146 361.25,-146"/>
<text text-anchor="middle" x="413.25" y="-185.45" font-family="Helvetica,sans-Serif" font-weight="bold" font-size="9.00">express&#45;serve&#45;static&#45;core</text>
</g>
<!-- src/ServerStatusManager.ts -->
<g id="node1" class="node">
<title>src/ServerStatusManager.ts</title>
<g id="a_node1"><a xlink:href="src/ServerStatusManager.ts" xlink:title="ServerStatusManager.ts">
<path fill="#ddfeff" stroke="black" d="M609.83,-111.88C609.83,-111.88 507.42,-111.88 507.42,-111.88 504.46,-111.88 501.5,-108.92 501.5,-105.96 501.5,-105.96 501.5,-100.04 501.5,-100.04 501.5,-97.08 504.46,-94.12 507.42,-94.12 507.42,-94.12 609.83,-94.12 609.83,-94.12 612.79,-94.12 615.75,-97.08 615.75,-100.04 615.75,-100.04 615.75,-105.96 615.75,-105.96 615.75,-108.92 612.79,-111.88 609.83,-111.88"/>
<text text-anchor="start" x="509.5" y="-99.33" font-family="Helvetica,sans-Serif" font-size="9.00">ServerStatusManager.ts</text>
</a>
</g>
</g>
<!-- src/archive/scrap.ts -->
<g id="node2" class="node">
<title>src/archive/scrap.ts</title>
<g id="a_node2"><a xlink:href="src/archive/scrap.ts" xlink:title="no&#45;orphans">
<path fill="#ccffcc" stroke="orange" d="M72.08,-192.88C72.08,-192.88 29.92,-192.88 29.92,-192.88 26.96,-192.88 24,-189.92 24,-186.96 24,-186.96 24,-181.04 24,-181.04 24,-178.08 26.96,-175.12 29.92,-175.12 29.92,-175.12 72.08,-175.12 72.08,-175.12 75.04,-175.12 78,-178.08 78,-181.04 78,-181.04 78,-186.96 78,-186.96 78,-189.92 75.04,-192.88 72.08,-192.88"/>
<text text-anchor="start" x="35.25" y="-180.32" font-family="Helvetica,sans-Serif" font-size="9.00" fill="orange">scrap.ts</text>
</a>
</g>
</g>
<!-- src/complexUtils.ts -->
<g id="node3" class="node">
<title>src/complexUtils.ts</title>
<g id="a_node3"><a xlink:href="src/complexUtils.ts" xlink:title="complexUtils.ts">
<path fill="#ddfeff" stroke="black" d="M445.58,-89.88C445.58,-89.88 379.92,-89.88 379.92,-89.88 376.96,-89.88 374,-86.92 374,-83.96 374,-83.96 374,-78.04 374,-78.04 374,-75.08 376.96,-72.12 379.92,-72.12 379.92,-72.12 445.58,-72.12 445.58,-72.12 448.54,-72.12 451.5,-75.08 451.5,-78.04 451.5,-78.04 451.5,-83.96 451.5,-83.96 451.5,-86.92 448.54,-89.88 445.58,-89.88"/>
<text text-anchor="start" x="382" y="-77.33" font-family="Helvetica,sans-Serif" font-size="9.00">complexUtils.ts</text>
</a>
</g>
</g>
<!-- src/complexUtils.ts&#45;&gt;src/ServerStatusManager.ts -->
<g id="edge1" class="edge">
<title>src/complexUtils.ts&#45;&gt;src/ServerStatusManager.ts</title>
<path fill="none" stroke="#000000" stroke-width="2" stroke-opacity="0.200000" d="M451.93,-86.84C464.41,-88.75 478.64,-90.92 492.53,-93.05"/>
<polygon fill="#000000" fill-opacity="0.200000" stroke="#000000" stroke-width="2" stroke-opacity="0.200000" points="492.86,-95.53 499.11,-94.36 493.5,-91.38 492.86,-95.53"/>
</g>
<!-- src/index.ts -->
<g id="node4" class="node">
<title>src/index.ts</title>
<g id="a_node4"><a xlink:href="src/index.ts" xlink:title="index.ts">
<path fill="#ddfeff" stroke="black" d="M72.08,-140.88C72.08,-140.88 29.92,-140.88 29.92,-140.88 26.96,-140.88 24,-137.92 24,-134.96 24,-134.96 24,-129.04 24,-129.04 24,-126.08 26.96,-123.12 29.92,-123.12 29.92,-123.12 72.08,-123.12 72.08,-123.12 75.04,-123.12 78,-126.08 78,-129.04 78,-129.04 78,-134.96 78,-134.96 78,-137.92 75.04,-140.88 72.08,-140.88"/>
<text text-anchor="start" x="35.25" y="-128.32" font-family="Helvetica,sans-Serif" font-size="9.00">index.ts</text>
</a>
</g>
</g>
<!-- src/index.ts&#45;&gt;src/ServerStatusManager.ts -->
<g id="edge3" class="edge">
<title>src/index.ts&#45;&gt;src/ServerStatusManager.ts</title>
<path fill="none" stroke="#000000" stroke-width="2" stroke-opacity="0.200000" d="M65.39,-141.11C72.68,-146.81 81.18,-154.81 86,-164 97.06,-185.1 75.94,-201.46 94,-217 171.91,-284.03 247.43,-284.14 325.25,-217 361.99,-185.3 304.95,-141.2 341.25,-109 352.38,-99.13 432.55,-99.17 492.07,-100.64"/>
<polygon fill="#000000" fill-opacity="0.200000" stroke="#000000" stroke-width="2" stroke-opacity="0.200000" points="492.01,-102.82 498.07,-100.88 492.12,-98.62 492.01,-102.82"/>
</g>
<!-- src/routes/index.ts -->
<g id="node5" class="node">
<title>src/routes/index.ts</title>
<g id="a_node5"><a xlink:href="src/routes/index.ts" xlink:title="index.ts">
<path fill="#ddfeff" stroke="black" d="M150.08,-136.88C150.08,-136.88 107.92,-136.88 107.92,-136.88 104.96,-136.88 102,-133.92 102,-130.96 102,-130.96 102,-125.04 102,-125.04 102,-122.08 104.96,-119.12 107.92,-119.12 107.92,-119.12 150.08,-119.12 150.08,-119.12 153.04,-119.12 156,-122.08 156,-125.04 156,-125.04 156,-130.96 156,-130.96 156,-133.92 153.04,-136.88 150.08,-136.88"/>
<text text-anchor="start" x="113.25" y="-124.33" font-family="Helvetica,sans-Serif" font-size="9.00">index.ts</text>
</a>
</g>
</g>
<!-- src/index.ts&#45;&gt;src/routes/index.ts -->
<g id="edge2" class="edge">
<title>src/index.ts&#45;&gt;src/routes/index.ts</title>
<path fill="none" stroke="#000000" stroke-width="2" stroke-opacity="0.200000" d="M78.15,-130.62C82.88,-130.37 87.87,-130.11 92.8,-129.85"/>
<polygon fill="#000000" fill-opacity="0.200000" stroke="#000000" stroke-width="2" stroke-opacity="0.200000" points="92.66,-131.81 98.54,-129.39 92.44,-127.61 92.66,-131.81"/>
</g>
<!-- src/routes/BadCompany.ts -->
<g id="node6" class="node">
<title>src/routes/BadCompany.ts</title>
<g id="a_node6"><a xlink:href="src/routes/BadCompany.ts" xlink:title="BadCompany.ts">
<path fill="#ddfeff" stroke="black" d="M244.33,-67.88C244.33,-67.88 174.92,-67.88 174.92,-67.88 171.96,-67.88 169,-64.92 169,-61.96 169,-61.96 169,-56.04 169,-56.04 169,-53.08 171.96,-50.12 174.92,-50.12 174.92,-50.12 244.33,-50.12 244.33,-50.12 247.29,-50.12 250.25,-53.08 250.25,-56.04 250.25,-56.04 250.25,-61.96 250.25,-61.96 250.25,-64.92 247.29,-67.88 244.33,-67.88"/>
<text text-anchor="start" x="177" y="-55.33" font-family="Helvetica,sans-Serif" font-size="9.00">BadCompany.ts</text>
</a>
</g>
</g>
<!-- src/routes/index.ts&#45;&gt;src/routes/BadCompany.ts -->
<g id="edge8" class="edge">
<title>src/routes/index.ts&#45;&gt;src/routes/BadCompany.ts</title>
<path fill="none" stroke="#000000" stroke-width="2" stroke-opacity="0.200000" d="M134.52,-118.69C140.75,-106.78 153.03,-86.24 169,-74 169.53,-73.6 170.06,-73.2 170.61,-72.82"/>
<polygon fill="#000000" fill-opacity="0.200000" stroke="#000000" stroke-width="2" stroke-opacity="0.200000" points="172.1,-74.21 176.21,-69.36 169.97,-70.59 172.1,-74.21"/>
</g>
<!-- src/routes/Channel.ts -->
<g id="node7" class="node">
<title>src/routes/Channel.ts</title>
<g id="a_node7"><a xlink:href="src/routes/Channel.ts" xlink:title="Channel.ts">
<path fill="#ddfeff" stroke="black" d="M233.83,-97.88C233.83,-97.88 185.42,-97.88 185.42,-97.88 182.46,-97.88 179.5,-94.92 179.5,-91.96 179.5,-91.96 179.5,-86.04 179.5,-86.04 179.5,-83.08 182.46,-80.12 185.42,-80.12 185.42,-80.12 233.83,-80.12 233.83,-80.12 236.79,-80.12 239.75,-83.08 239.75,-86.04 239.75,-86.04 239.75,-91.96 239.75,-91.96 239.75,-94.92 236.79,-97.88 233.83,-97.88"/>
<text text-anchor="start" x="187.5" y="-85.33" font-family="Helvetica,sans-Serif" font-size="9.00">Channel.ts</text>
</a>
</g>
</g>
<!-- src/routes/index.ts&#45;&gt;src/routes/Channel.ts -->
<g id="edge9" class="edge">
<title>src/routes/index.ts&#45;&gt;src/routes/Channel.ts</title>
<path fill="none" stroke="#000000" stroke-width="2" stroke-opacity="0.200000" d="M143.72,-118.67C151.03,-113.93 160.3,-108.28 169,-104 170.53,-103.25 172.12,-102.5 173.73,-101.78"/>
<polygon fill="#000000" fill-opacity="0.200000" stroke="#000000" stroke-width="2" stroke-opacity="0.200000" points="175.19,-103.59 179.9,-99.32 173.55,-99.73 175.19,-103.59"/>
</g>
<!-- src/routes/Directory.ts -->
<g id="node9" class="node">
<title>src/routes/Directory.ts</title>
<g id="a_node9"><a xlink:href="src/routes/Directory.ts" xlink:title="Directory.ts">
<path fill="#ddfeff" stroke="black" d="M234.58,-127.88C234.58,-127.88 184.67,-127.88 184.67,-127.88 181.71,-127.88 178.75,-124.92 178.75,-121.96 178.75,-121.96 178.75,-116.04 178.75,-116.04 178.75,-113.08 181.71,-110.12 184.67,-110.12 184.67,-110.12 234.58,-110.12 234.58,-110.12 237.54,-110.12 240.5,-113.08 240.5,-116.04 240.5,-116.04 240.5,-121.96 240.5,-121.96 240.5,-124.92 237.54,-127.88 234.58,-127.88"/>
<text text-anchor="start" x="186.75" y="-115.33" font-family="Helvetica,sans-Serif" font-size="9.00">Directory.ts</text>
</a>
</g>
</g>
<!-- src/routes/index.ts&#45;&gt;src/routes/Directory.ts -->
<g id="edge10" class="edge">
<title>src/routes/index.ts&#45;&gt;src/routes/Directory.ts</title>
<path fill="none" stroke="#000000" stroke-width="2" stroke-opacity="0.200000" d="M156.18,-125C160.54,-124.5 165.13,-123.98 169.73,-123.45"/>
<polygon fill="#000000" fill-opacity="0.200000" stroke="#000000" stroke-width="2" stroke-opacity="0.200000" points="169.76,-125.22 175.48,-122.45 169.28,-121.05 169.76,-125.22"/>
</g>
<!-- src/routes/IndexRouter.ts -->
<g id="node10" class="node">
<title>src/routes/IndexRouter.ts</title>
<g id="a_node10"><a xlink:href="src/routes/IndexRouter.ts" xlink:title="IndexRouter.ts">
<path fill="#ddfeff" stroke="black" d="M241.33,-157.88C241.33,-157.88 177.92,-157.88 177.92,-157.88 174.96,-157.88 172,-154.92 172,-151.96 172,-151.96 172,-146.04 172,-146.04 172,-143.08 174.96,-140.12 177.92,-140.12 177.92,-140.12 241.33,-140.12 241.33,-140.12 244.29,-140.12 247.25,-143.08 247.25,-146.04 247.25,-146.04 247.25,-151.96 247.25,-151.96 247.25,-154.92 244.29,-157.88 241.33,-157.88"/>
<text text-anchor="start" x="180" y="-145.32" font-family="Helvetica,sans-Serif" font-size="9.00">IndexRouter.ts</text>
</a>
</g>
</g>
<!-- src/routes/index.ts&#45;&gt;src/routes/IndexRouter.ts -->
<g id="edge11" class="edge">
<title>src/routes/index.ts&#45;&gt;src/routes/IndexRouter.ts</title>
<path fill="none" stroke="#000000" stroke-width="2" stroke-opacity="0.200000" d="M156.18,-134.99C159.08,-135.77 162.09,-136.57 165.14,-137.38"/>
<polygon fill="#000000" fill-opacity="0.200000" stroke="#000000" stroke-width="2" stroke-opacity="0.200000" points="165.4,-140.16 171.74,-139.68 166.49,-136.11 165.4,-140.16"/>
</g>
<!-- src/routes/Url.ts -->
<g id="node11" class="node">
<title>src/routes/Url.ts</title>
<g id="a_node11"><a xlink:href="src/routes/Url.ts" xlink:title="Url.ts">
<path fill="#ddfeff" stroke="black" d="M230.71,-187.88C230.71,-187.88 188.54,-187.88 188.54,-187.88 185.58,-187.88 182.62,-184.92 182.62,-181.96 182.62,-181.96 182.62,-176.04 182.62,-176.04 182.62,-173.08 185.58,-170.12 188.54,-170.12 188.54,-170.12 230.71,-170.12 230.71,-170.12 233.67,-170.12 236.62,-173.08 236.62,-176.04 236.62,-176.04 236.62,-181.96 236.62,-181.96 236.62,-184.92 233.67,-187.88 230.71,-187.88"/>
<text text-anchor="start" x="199.12" y="-175.32" font-family="Helvetica,sans-Serif" font-size="9.00">Url.ts</text>
</a>
</g>
</g>
<!-- src/routes/index.ts&#45;&gt;src/routes/Url.ts -->
<g id="edge12" class="edge">
<title>src/routes/index.ts&#45;&gt;src/routes/Url.ts</title>
<path fill="none" stroke="#000000" stroke-width="2" stroke-opacity="0.200000" d="M151.43,-137.35C153.06,-138.46 154.61,-139.68 156,-141 164.51,-149.09 160.09,-156.35 169,-164 170.71,-165.47 172.58,-166.8 174.54,-168"/>
<polygon fill="#000000" fill-opacity="0.200000" stroke="#000000" stroke-width="2" stroke-opacity="0.200000" points="174.16,-170.19 180.46,-171.06 176.08,-166.46 174.16,-170.19"/>
</g>
<!-- src/routes/utils.ts -->
<g id="node8" class="node">
<title>src/routes/utils.ts</title>
<g id="a_node8"><a xlink:href="src/routes/utils.ts" xlink:title="utils.ts">
<path fill="#ddfeff" stroke="black" d="M311.33,-112.88C311.33,-112.88 269.17,-112.88 269.17,-112.88 266.21,-112.88 263.25,-109.92 263.25,-106.96 263.25,-106.96 263.25,-101.04 263.25,-101.04 263.25,-98.08 266.21,-95.12 269.17,-95.12 269.17,-95.12 311.33,-95.12 311.33,-95.12 314.29,-95.12 317.25,-98.08 317.25,-101.04 317.25,-101.04 317.25,-106.96 317.25,-106.96 317.25,-109.92 314.29,-112.88 311.33,-112.88"/>
<text text-anchor="start" x="277.5" y="-100.33" font-family="Helvetica,sans-Serif" font-size="9.00">utils.ts</text>
</a>
</g>
</g>
<!-- src/routes/Channel.ts&#45;&gt;src/routes/utils.ts -->
<g id="edge4" class="edge">
<title>src/routes/Channel.ts&#45;&gt;src/routes/utils.ts</title>
<path fill="none" stroke="#000000" stroke-width="2" stroke-opacity="0.200000" d="M239.9,-94.59C244.6,-95.48 249.49,-96.42 254.3,-97.33"/>
<polygon fill="#000000" fill-opacity="0.200000" stroke="#000000" stroke-width="2" stroke-opacity="0.200000" points="254.52,-99.89 260.8,-98.95 255.3,-95.77 254.52,-99.89"/>
</g>
<!-- src/routes/utils.ts&#45;&gt;src/complexUtils.ts -->
<g id="edge13" class="edge">
<title>src/routes/utils.ts&#45;&gt;src/complexUtils.ts</title>
<path fill="none" stroke="#000000" stroke-width="2" stroke-opacity="0.200000" d="M317.69,-98.95C331.61,-96.3 349.07,-92.96 365.17,-89.89"/>
<polygon fill="#000000" fill-opacity="0.200000" stroke="#000000" stroke-width="2" stroke-opacity="0.200000" points="366.44,-91.41 371.94,-88.22 365.65,-87.28 366.44,-91.41"/>
</g>
<!-- src/routes/Directory.ts&#45;&gt;src/routes/utils.ts -->
<g id="edge5" class="edge">
<title>src/routes/Directory.ts&#45;&gt;src/routes/utils.ts</title>
<path fill="none" stroke="#000000" stroke-width="2" stroke-opacity="0.200000" d="M240.8,-113.24C245.23,-112.4 249.83,-111.52 254.35,-110.66"/>
<polygon fill="#000000" fill-opacity="0.200000" stroke="#000000" stroke-width="2" stroke-opacity="0.200000" points="255.38,-112.22 260.88,-109.03 254.59,-108.09 255.38,-112.22"/>
</g>
<!-- src/routes/IndexRouter.ts&#45;&gt;src/routes/utils.ts -->
<g id="edge6" class="edge">
<title>src/routes/IndexRouter.ts&#45;&gt;src/routes/utils.ts</title>
<path fill="none" stroke="#000000" stroke-width="2" stroke-opacity="0.200000" d="M240.57,-139.76C243.99,-138.11 247.3,-136.2 250.25,-134 256.21,-129.56 256.32,-125.38 262.1,-119.08"/>
<polygon fill="#000000" fill-opacity="0.200000" stroke="#000000" stroke-width="2" stroke-opacity="0.200000" points="263.51,-120.82 266.54,-115.23 260.69,-117.71 263.51,-120.82"/>
</g>
<!-- src/routes/Url.ts&#45;&gt;src/routes/utils.ts -->
<g id="edge7" class="edge">
<title>src/routes/Url.ts&#45;&gt;src/routes/utils.ts</title>
<path fill="none" stroke="#000000" stroke-width="2" stroke-opacity="0.200000" d="M237.08,-172.96C241.99,-170.81 246.68,-167.91 250.25,-164 263.14,-149.86 252.67,-137.1 262.24,-120.17"/>
<polygon fill="#000000" fill-opacity="0.200000" stroke="#000000" stroke-width="2" stroke-opacity="0.200000" points="264.43,-121.3 266.21,-115.19 261.01,-118.86 264.43,-121.3"/>
</g>
<!-- src/test.ts -->
<g id="node12" class="node">
<title>src/test.ts</title>
<g id="a_node12"><a xlink:href="src/test.ts" xlink:title="test.ts">
<path fill="#ddfeff" stroke="black" d="M230.71,-33.88C230.71,-33.88 188.54,-33.88 188.54,-33.88 185.58,-33.88 182.62,-30.92 182.62,-27.96 182.62,-27.96 182.62,-22.04 182.62,-22.04 182.62,-19.08 185.58,-16.12 188.54,-16.12 188.54,-16.12 230.71,-16.12 230.71,-16.12 233.67,-16.12 236.62,-19.08 236.62,-22.04 236.62,-22.04 236.62,-27.96 236.62,-27.96 236.62,-30.92 233.67,-33.88 230.71,-33.88"/>
<text text-anchor="start" x="198" y="-21.32" font-family="Helvetica,sans-Serif" font-size="9.00">test.ts</text>
</a>
</g>
</g>
<!-- src/test.ts&#45;&gt;src/complexUtils.ts -->
<g id="edge14" class="edge">
<title>src/test.ts&#45;&gt;src/complexUtils.ts</title>
<path fill="none" stroke="#000000" stroke-width="2" stroke-opacity="0.200000" d="M237.07,-25.76C260.63,-27.02 295.83,-30.32 325.25,-39 347.82,-45.66 371.75,-57.71 388.71,-67.21"/>
<polygon fill="#000000" fill-opacity="0.200000" stroke="#000000" stroke-width="2" stroke-opacity="0.200000" points="388.19,-69.47 394.44,-70.63 390.27,-65.82 388.19,-69.47"/>
</g>
<!-- src/test.ts&#45;&gt;src/routes/utils.ts -->
<g id="edge15" class="edge">
<title>src/test.ts&#45;&gt;src/routes/utils.ts</title>
<path fill="none" stroke="#000000" stroke-width="2" stroke-opacity="0.200000" d="M236.72,-30.11C241.77,-32.15 246.62,-35.01 250.25,-39 264.53,-54.7 251.86,-68.94 262.22,-87.71"/>
<polygon fill="#000000" fill-opacity="0.200000" stroke="#000000" stroke-width="2" stroke-opacity="0.200000" points="261.02,-89.11 266.17,-92.84 264.47,-86.71 261.02,-89.11"/>
</g>
<!-- src/types/express&#45;serve&#45;static&#45;core/index.d.ts -->
<g id="node13" class="node">
<title>src/types/express&#45;serve&#45;static&#45;core/index.d.ts</title>
<g id="a_node13"><a xlink:href="src/types/express-serve-static-core/index.d.ts" xlink:title="index.d.ts">
<path fill="#ddfeff" stroke="black" d="M434.33,-171.88C434.33,-171.88 391.17,-171.88 391.17,-171.88 388.21,-171.88 385.25,-168.92 385.25,-165.96 385.25,-165.96 385.25,-160.04 385.25,-160.04 385.25,-157.08 388.21,-154.12 391.17,-154.12 391.17,-154.12 434.33,-154.12 434.33,-154.12 437.29,-154.12 440.25,-157.08 440.25,-160.04 440.25,-160.04 440.25,-165.96 440.25,-165.96 440.25,-168.92 437.29,-171.88 434.33,-171.88"/>
<text text-anchor="start" x="393.25" y="-159.32" font-family="Helvetica,sans-Serif" font-size="9.00">index.d.ts</text>
</a>
</g>
</g>
<!-- src/types/express&#45;serve&#45;static&#45;core/index.d.ts&#45;&gt;src/ServerStatusManager.ts -->
<g id="edge16" class="edge">
<title>src/types/express&#45;serve&#45;static&#45;core/index.d.ts&#45;&gt;src/ServerStatusManager.ts</title>
<path fill="none" stroke="#000000" stroke-width="2" stroke-opacity="0.200000" d="M440.59,-160.67C454.31,-158.85 471.06,-155.63 485.25,-150 505.22,-142.07 525.54,-128.27 539.54,-117.67"/>
<polygon fill="#000000" fill-opacity="0.200000" stroke="#000000" stroke-width="2" stroke-opacity="0.200000" points="541.17,-118.51 544.62,-113.17 538.6,-115.19 541.17,-118.51"/>
</g>
<!-- src/types/types.d.ts -->
<g id="node14" class="node">
<title>src/types/types.d.ts</title>
<g id="a_node14"><a xlink:href="src/types/types.d.ts" xlink:title="types.d.ts">
<path fill="#ccffcc" stroke="black" d="M433.96,-137.88C433.96,-137.88 391.54,-137.88 391.54,-137.88 388.58,-137.88 385.62,-134.92 385.62,-131.96 385.62,-131.96 385.62,-126.04 385.62,-126.04 385.62,-123.08 388.58,-120.12 391.54,-120.12 391.54,-120.12 433.96,-120.12 433.96,-120.12 436.92,-120.12 439.88,-123.08 439.88,-126.04 439.88,-126.04 439.88,-131.96 439.88,-131.96 439.88,-134.92 436.92,-137.88 433.96,-137.88"/>
<text text-anchor="start" x="393.62" y="-125.33" font-family="Helvetica,sans-Serif" font-size="9.00">types.d.ts</text>
</a>
</g>
</g>
</g>
</svg>
