<?xml version="1.0" encoding="UTF-8" standalone="no"?>
<!DOCTYPE svg PUBLIC "-//W3C//DTD SVG 1.1//EN"
 "http://www.w3.org/Graphics/SVG/1.1/DTD/svg11.dtd">
<!-- Generated by graphviz version 8.0.5 (20230430.1635)
 -->
<!-- Title: G Pages: 1 -->
<svg width="447pt" height="97pt"
 viewBox="0.00 0.00 447.45 97.39" xmlns="http://www.w3.org/2000/svg" xmlns:xlink="http://www.w3.org/1999/xlink">
<g id="graph0" class="graph" transform="scale(1 1) rotate(0) translate(21.6 75.79)">
<title>G</title>
<polygon fill="#111111" stroke="none" points="-21.6,21.6 -21.6,-75.79 425.85,-75.79 425.85,21.6 -21.6,21.6"/>
<!-- ServerStatusManager.ts -->
<g id="node1" class="node">
<title>ServerStatusManager.ts</title>
<path fill="none" stroke="#ff6c60" d="M153.58,-36.19C153.58,-36.19 7.92,-36.19 7.92,-36.19 3.96,-36.19 0,-32.23 0,-28.27 0,-28.27 0,-20.35 0,-20.35 0,-16.39 3.96,-12.44 7.92,-12.44 7.92,-12.44 153.58,-12.44 153.58,-12.44 157.54,-12.44 161.5,-16.39 161.5,-20.35 161.5,-20.35 161.5,-28.27 161.5,-28.27 161.5,-32.23 157.54,-36.19 153.58,-36.19"/>
<text text-anchor="middle" x="80.75" y="-18.89" font-family="Arial" font-size="14.00" fill="#ff6c60">ServerStatusManager.ts</text>
</g>
<!-- scrapeUtils.ts -->
<g id="node2" class="node">
<title>scrapeUtils.ts</title>
<path fill="none" stroke="#ff6c60" d="M286.58,-36.19C286.58,-36.19 205.42,-36.19 205.42,-36.19 201.46,-36.19 197.5,-32.23 197.5,-28.27 197.5,-28.27 197.5,-20.35 197.5,-20.35 197.5,-16.39 201.46,-12.44 205.42,-12.44 205.42,-12.44 286.58,-12.44 286.58,-12.44 290.54,-12.44 294.5,-16.39 294.5,-20.35 294.5,-20.35 294.5,-28.27 294.5,-28.27 294.5,-32.23 290.54,-36.19 286.58,-36.19"/>
<text text-anchor="middle" x="246" y="-18.89" font-family="Arial" font-size="14.00" fill="#ff6c60">scrapeUtils.ts</text>
</g>
<!-- ServerStatusManager.ts&#45;&gt;scrapeUtils.ts -->
<g id="edge1" class="edge">
<title>ServerStatusManager.ts&#45;&gt;scrapeUtils.ts</title>
<path fill="none" stroke="#757575" d="M161.94,-17.56C170.16,-17.55 178.4,-17.63 186.33,-17.8"/>
<polygon fill="#757575" stroke="#757575" points="186.2,-21.33 196.29,-18.11 186.39,-14.33 186.2,-21.33"/>
</g>
<!-- scrapeUtils.ts&#45;&gt;ServerStatusManager.ts -->
<g id="edge5" class="edge">
<title>scrapeUtils.ts&#45;&gt;ServerStatusManager.ts</title>
<path fill="none" stroke="#757575" d="M197.29,-30.51C189.47,-30.78 181.15,-30.95 172.7,-31.02"/>
<polygon fill="#757575" stroke="#757575" points="172.93,-27.52 162.94,-31.06 172.95,-34.52 172.93,-27.52"/>
</g>
<!-- discord.ts -->
<g id="node3" class="node">
<title>discord.ts</title>
<path fill="none" stroke="#ff6c60" d="M396.33,-36.19C396.33,-36.19 338.42,-36.19 338.42,-36.19 334.46,-36.19 330.5,-32.23 330.5,-28.27 330.5,-28.27 330.5,-20.35 330.5,-20.35 330.5,-16.39 334.46,-12.44 338.42,-12.44 338.42,-12.44 396.33,-12.44 396.33,-12.44 400.29,-12.44 404.25,-16.39 404.25,-20.35 404.25,-20.35 404.25,-28.27 404.25,-28.27 404.25,-32.23 400.29,-36.19 396.33,-36.19"/>
<text text-anchor="middle" x="367.38" y="-18.89" font-family="Arial" font-size="14.00" fill="#ff6c60">discord.ts</text>
</g>
<!-- scrapeUtils.ts&#45;&gt;discord.ts -->
<g id="edge6" class="edge">
<title>scrapeUtils.ts&#45;&gt;discord.ts</title>
<path fill="none" stroke="#757575" d="M294.87,-17.68C302.98,-17.51 311.4,-17.52 319.49,-17.7"/>
<polygon fill="#757575" stroke="#757575" points="319.15,-21.22 329.26,-18.05 319.38,-14.23 319.15,-21.22"/>
</g>
<!-- discord.ts&#45;&gt;ServerStatusManager.ts -->
<g id="edge2" class="edge">
<title>discord.ts&#45;&gt;ServerStatusManager.ts</title>
<path fill="none" stroke="#757575" d="M331.72,-12.03C320.05,-8.47 306.85,-5.08 294.5,-3.31 244.65,3.82 187.87,-2.5 145.52,-10.03"/>
<polygon fill="#757575" stroke="#757575" points="145,-6.75 135.8,-12.01 146.27,-13.63 145,-6.75"/>
</g>
<!-- discord.ts&#45;&gt;scrapeUtils.ts -->
<g id="edge4" class="edge">
<title>discord.ts&#45;&gt;scrapeUtils.ts</title>
<path fill="none" stroke="#757575" d="M330.26,-30.57C322.52,-30.91 314.14,-31.07 305.78,-31.06"/>
<polygon fill="#757575" stroke="#757575" points="305.9,-27.55 295.87,-30.94 305.83,-34.55 305.9,-27.55"/>
</g>
<!-- discord.ts&#45;&gt;discord.ts -->
<g id="edge3" class="edge">
<title>discord.ts&#45;&gt;discord.ts</title>
<path fill="none" stroke="#757575" d="M347.07,-36.59C340.46,-45.4 347.22,-54.19 367.38,-54.19 378.71,-54.19 385.81,-51.41 388.68,-47.41"/>
<polygon fill="#757575" stroke="#757575" points="392.08,-47.22 387.68,-37.59 385.11,-47.86 392.08,-47.22"/>
</g>
</g>
</svg>
