<?xml version="1.0" encoding="UTF-8" standalone="no"?>
<!DOCTYPE svg PUBLIC "-//W3C//DTD SVG 1.1//EN"
 "http://www.w3.org/Graphics/SVG/1.1/DTD/svg11.dtd">
<!-- Generated by graphviz version 8.0.5 (20230430.1635)
 -->
<!-- Title: dependency&#45;cruiser output Pages: 1 -->
<svg width="641pt" height="240pt"
 viewBox="0.00 0.00 640.50 240.00" xmlns="http://www.w3.org/2000/svg" xmlns:xlink="http://www.w3.org/1999/xlink">
<g id="graph0" class="graph" transform="scale(1 1) rotate(0) translate(4 236)">
<title>dependency&#45;cruiser output</title>
<polygon fill="white" stroke="none" points="-4,4 -4,-236 636.5,-236 636.5,4 -4,4"/>
<g id="clust1" class="cluster">
<title>cluster_src</title>
<path fill="#ffffff" stroke="black" stroke-width="2" d="M20,-8C20,-8 612.5,-8 612.5,-8 618.5,-8 624.5,-14 624.5,-20 624.5,-20 624.5,-212 624.5,-212 624.5,-218 618.5,-224 612.5,-224 612.5,-224 20,-224 20,-224 14,-224 8,-218 8,-212 8,-212 8,-20 8,-20 8,-14 14,-8 20,-8"/>
<text text-anchor="middle" x="316.25" y="-211.45" font-family="Helvetica,sans-Serif" font-weight="bold" font-size="9.00">src</text>
</g>
<g id="clust3" class="cluster">
<title>cluster_src/routes</title>
<path fill="#ffffff" stroke="black" stroke-width="2" d="M106.75,-26C106.75,-26 314,-26 314,-26 320,-26 326,-32 326,-38 326,-38 326,-186 326,-186 326,-192 320,-198 314,-198 314,-198 106.75,-198 106.75,-198 100.75,-198 94.75,-192 94.75,-186 94.75,-186 94.75,-38 94.75,-38 94.75,-32 100.75,-26 106.75,-26"/>
<text text-anchor="middle" x="210.38" y="-185.45" font-family="Helvetica,sans-Serif" font-weight="bold" font-size="9.00">routes</text>
</g>
<g id="clust4" class="cluster">
<title>cluster_src/types</title>
<path fill="#ffffff" stroke="black" stroke-width="2" d="M354,-71C354,-71 474,-71 474,-71 480,-71 486,-77 486,-83 486,-83 486,-171 486,-171 486,-177 480,-183 474,-183 474,-183 354,-183 354,-183 348,-183 342,-177 342,-171 342,-171 342,-83 342,-83 342,-77 348,-71 354,-71"/>
<text text-anchor="middle" x="414" y="-170.45" font-family="Helvetica,sans-Serif" font-weight="bold" font-size="9.00">types</text>
</g>
<g id="clust5" class="cluster">
<title>cluster_src/types/express&#45;serve&#45;static&#45;core</title>
<path fill="#ffffff" stroke="black" stroke-width="2" d="M362,-105C362,-105 466,-105 466,-105 472,-105 478,-111 478,-117 478,-117 478,-145 478,-145 478,-151 472,-157 466,-157 466,-157 362,-157 362,-157 356,-157 350,-151 350,-145 350,-145 350,-117 350,-117 350,-111 356,-105 362,-105"/>
<text text-anchor="middle" x="414" y="-144.45" font-family="Helvetica,sans-Serif" font-weight="bold" font-size="9.00">express&#45;serve&#45;static&#45;core</text>
</g>
<g id="clust2" class="cluster">
<title>cluster_src/archive</title>
<path fill="#ffffff" stroke="black" stroke-width="2" d="M28.38,-139C28.38,-139 74.38,-139 74.38,-139 80.38,-139 86.38,-145 86.38,-151 86.38,-151 86.38,-179 86.38,-179 86.38,-185 80.38,-191 74.38,-191 74.38,-191 28.38,-191 28.38,-191 22.38,-191 16.38,-185 16.38,-179 16.38,-179 16.38,-151 16.38,-151 16.38,-145 22.38,-139 28.38,-139"/>
<text text-anchor="middle" x="51.38" y="-178.45" font-family="Helvetica,sans-Serif" font-weight="bold" font-size="9.00">archive</text>
</g>
<!-- src/ServerStatusManager.ts -->
<g id="node1" class="node">
<title>src/ServerStatusManager.ts</title>
<g id="a_node1"><a xlink:href="src/ServerStatusManager.ts" xlink:title="ServerStatusManager.ts">
<path fill="#ddfeff" stroke="black" d="M610.58,-62.88C610.58,-62.88 508.17,-62.88 508.17,-62.88 505.21,-62.88 502.25,-59.92 502.25,-56.96 502.25,-56.96 502.25,-51.04 502.25,-51.04 502.25,-48.08 505.21,-45.12 508.17,-45.12 508.17,-45.12 610.58,-45.12 610.58,-45.12 613.54,-45.12 616.5,-48.08 616.5,-51.04 616.5,-51.04 616.5,-56.96 616.5,-56.96 616.5,-59.92 613.54,-62.88 610.58,-62.88"/>
<text text-anchor="start" x="510.25" y="-50.33" font-family="Helvetica,sans-Serif" font-size="9.00">ServerStatusManager.ts</text>
</a>
</g>
</g>
<!-- src/archive/scrap.ts -->
<g id="node2" class="node">
<title>src/archive/scrap.ts</title>
<g id="a_node2"><a xlink:href="src/archive/scrap.ts" xlink:title="no&#45;orphans">
<path fill="#ccffcc" stroke="orange" d="M72.46,-164.88C72.46,-164.88 30.29,-164.88 30.29,-164.88 27.33,-164.88 24.38,-161.92 24.38,-158.96 24.38,-158.96 24.38,-153.04 24.38,-153.04 24.38,-150.08 27.33,-147.12 30.29,-147.12 30.29,-147.12 72.46,-147.12 72.46,-147.12 75.42,-147.12 78.38,-150.08 78.38,-153.04 78.38,-153.04 78.38,-158.96 78.38,-158.96 78.38,-161.92 75.42,-164.88 72.46,-164.88"/>
<text text-anchor="start" x="35.62" y="-152.32" font-family="Helvetica,sans-Serif" font-size="9.00" fill="orange">scrap.ts</text>
</a>
</g>
</g>
<!-- src/complexUtils.ts -->
<g id="node3" class="node">
<title>src/complexUtils.ts</title>
<g id="a_node3"><a xlink:href="src/complexUtils.ts" xlink:title="complexUtils.ts">
<path fill="#ddfeff" stroke="black" d="M446.33,-62.88C446.33,-62.88 380.67,-62.88 380.67,-62.88 377.71,-62.88 374.75,-59.92 374.75,-56.96 374.75,-56.96 374.75,-51.04 374.75,-51.04 374.75,-48.08 377.71,-45.12 380.67,-45.12 380.67,-45.12 446.33,-45.12 446.33,-45.12 449.29,-45.12 452.25,-48.08 452.25,-51.04 452.25,-51.04 452.25,-56.96 452.25,-56.96 452.25,-59.92 449.29,-62.88 446.33,-62.88"/>
<text text-anchor="start" x="382.75" y="-50.33" font-family="Helvetica,sans-Serif" font-size="9.00">complexUtils.ts</text>
</a>
</g>
</g>
<!-- src/complexUtils.ts&#45;&gt;src/ServerStatusManager.ts -->
<g id="edge1" class="edge">
<title>src/complexUtils.ts&#45;&gt;src/ServerStatusManager.ts</title>
<path fill="none" stroke="#000000" stroke-width="2" stroke-opacity="0.200000" d="M452.68,-54C465.04,-54 479.12,-54 492.88,-54"/>
<polygon fill="#000000" fill-opacity="0.200000" stroke="#000000" stroke-width="2" stroke-opacity="0.200000" points="492.86,-56.1 498.86,-54 492.86,-51.9 492.86,-56.1"/>
</g>
<!-- src/index.ts -->
<g id="node4" class="node">
<title>src/index.ts</title>
<g id="a_node4"><a xlink:href="src/index.ts" xlink:title="index.ts">
<path fill="#ddfeff" stroke="black" d="M72.46,-123.88C72.46,-123.88 30.29,-123.88 30.29,-123.88 27.33,-123.88 24.38,-120.92 24.38,-117.96 24.38,-117.96 24.38,-112.04 24.38,-112.04 24.38,-109.08 27.33,-106.12 30.29,-106.12 30.29,-106.12 72.46,-106.12 72.46,-106.12 75.42,-106.12 78.38,-109.08 78.38,-112.04 78.38,-112.04 78.38,-117.96 78.38,-117.96 78.38,-120.92 75.42,-123.88 72.46,-123.88"/>
<text text-anchor="start" x="35.62" y="-111.33" font-family="Helvetica,sans-Serif" font-size="9.00">index.ts</text>
</a>
</g>
</g>
<!-- src/index.ts&#45;&gt;src/ServerStatusManager.ts -->
<g id="edge3" class="edge">
<title>src/index.ts&#45;&gt;src/ServerStatusManager.ts</title>
<path fill="none" stroke="#000000" stroke-width="2" stroke-opacity="0.200000" d="M78.59,-107.23C81.74,-105.32 84.6,-102.94 86.75,-100 96.91,-86.11 82.28,-34.85 94.75,-23 131.73,12.14 158.36,-17 209.38,-17 209.38,-17 209.38,-17 292,-17 368.07,-17 455.21,-31.99 508.52,-42.88"/>
<polygon fill="#000000" fill-opacity="0.200000" stroke="#000000" stroke-width="2" stroke-opacity="0.200000" points="508.79,-45.5 515.1,-44.66 509.65,-41.39 508.79,-45.5"/>
</g>
<!-- src/routes/index.ts -->
<g id="node5" class="node">
<title>src/routes/index.ts</title>
<g id="a_node5"><a xlink:href="src/routes/index.ts" xlink:title="index.ts">
<path fill="#ddfeff" stroke="black" d="M150.83,-117.88C150.83,-117.88 108.67,-117.88 108.67,-117.88 105.71,-117.88 102.75,-114.92 102.75,-111.96 102.75,-111.96 102.75,-106.04 102.75,-106.04 102.75,-103.08 105.71,-100.12 108.67,-100.12 108.67,-100.12 150.83,-100.12 150.83,-100.12 153.79,-100.12 156.75,-103.08 156.75,-106.04 156.75,-106.04 156.75,-111.96 156.75,-111.96 156.75,-114.92 153.79,-117.88 150.83,-117.88"/>
<text text-anchor="start" x="114" y="-105.33" font-family="Helvetica,sans-Serif" font-size="9.00">index.ts</text>
</a>
</g>
</g>
<!-- src/index.ts&#45;&gt;src/routes/index.ts -->
<g id="edge2" class="edge">
<title>src/index.ts&#45;&gt;src/routes/index.ts</title>
<path fill="none" stroke="#000000" stroke-width="2" stroke-opacity="0.200000" d="M78.66,-112.94C83.46,-112.56 88.54,-112.16 93.55,-111.77"/>
<polygon fill="#000000" fill-opacity="0.200000" stroke="#000000" stroke-width="2" stroke-opacity="0.200000" points="93.6,-113.63 99.42,-111.07 93.27,-109.45 93.6,-113.63"/>
</g>
<!-- src/routes/BadCompany.ts -->
<g id="node7" class="node">
<title>src/routes/BadCompany.ts</title>
<g id="a_node7"><a xlink:href="src/routes/BadCompany.ts" xlink:title="BadCompany.ts">
<path fill="#ddfeff" stroke="black" d="M245.08,-51.88C245.08,-51.88 175.67,-51.88 175.67,-51.88 172.71,-51.88 169.75,-48.92 169.75,-45.96 169.75,-45.96 169.75,-40.04 169.75,-40.04 169.75,-37.08 172.71,-34.12 175.67,-34.12 175.67,-34.12 245.08,-34.12 245.08,-34.12 248.04,-34.12 251,-37.08 251,-40.04 251,-40.04 251,-45.96 251,-45.96 251,-48.92 248.04,-51.88 245.08,-51.88"/>
<text text-anchor="start" x="177.75" y="-39.33" font-family="Helvetica,sans-Serif" font-size="9.00">BadCompany.ts</text>
</a>
</g>
</g>
<!-- src/routes/index.ts&#45;&gt;src/routes/BadCompany.ts -->
<g id="edge8" class="edge">
<title>src/routes/index.ts&#45;&gt;src/routes/BadCompany.ts</title>
<path fill="none" stroke="#000000" stroke-width="2" stroke-opacity="0.200000" d="M152.7,-99.73C154.18,-98.61 155.55,-97.37 156.75,-96 168.5,-82.56 157.33,-70.82 169.75,-58 169.88,-57.86 170.02,-57.72 170.16,-57.59"/>
<polygon fill="#000000" fill-opacity="0.200000" stroke="#000000" stroke-width="2" stroke-opacity="0.200000" points="171.62,-58.58 175.1,-53.27 169.06,-55.25 171.62,-58.58"/>
</g>
<!-- src/routes/Channel.ts -->
<g id="node8" class="node">
<title>src/routes/Channel.ts</title>
<g id="a_node8"><a xlink:href="src/routes/Channel.ts" xlink:title="Channel.ts">
<path fill="#ddfeff" stroke="black" d="M234.58,-81.88C234.58,-81.88 186.17,-81.88 186.17,-81.88 183.21,-81.88 180.25,-78.92 180.25,-75.96 180.25,-75.96 180.25,-70.04 180.25,-70.04 180.25,-67.08 183.21,-64.12 186.17,-64.12 186.17,-64.12 234.58,-64.12 234.58,-64.12 237.54,-64.12 240.5,-67.08 240.5,-70.04 240.5,-70.04 240.5,-75.96 240.5,-75.96 240.5,-78.92 237.54,-81.88 234.58,-81.88"/>
<text text-anchor="start" x="188.25" y="-69.33" font-family="Helvetica,sans-Serif" font-size="9.00">Channel.ts</text>
</a>
</g>
</g>
<!-- src/routes/index.ts&#45;&gt;src/routes/Channel.ts -->
<g id="edge9" class="edge">
<title>src/routes/index.ts&#45;&gt;src/routes/Channel.ts</title>
<path fill="none" stroke="#000000" stroke-width="2" stroke-opacity="0.200000" d="M149.88,-99.68C152.21,-98.47 154.54,-97.23 156.75,-96 162.68,-92.7 163.66,-90.99 169.75,-88 171.28,-87.25 172.87,-86.5 174.48,-85.78"/>
<polygon fill="#000000" fill-opacity="0.200000" stroke="#000000" stroke-width="2" stroke-opacity="0.200000" points="175.94,-87.59 180.65,-83.32 174.3,-83.73 175.94,-87.59"/>
</g>
<!-- src/routes/Directory.ts -->
<g id="node10" class="node">
<title>src/routes/Directory.ts</title>
<g id="a_node10"><a xlink:href="src/routes/Directory.ts" xlink:title="Directory.ts">
<path fill="#ddfeff" stroke="black" d="M235.33,-111.88C235.33,-111.88 185.42,-111.88 185.42,-111.88 182.46,-111.88 179.5,-108.92 179.5,-105.96 179.5,-105.96 179.5,-100.04 179.5,-100.04 179.5,-97.08 182.46,-94.12 185.42,-94.12 185.42,-94.12 235.33,-94.12 235.33,-94.12 238.29,-94.12 241.25,-97.08 241.25,-100.04 241.25,-100.04 241.25,-105.96 241.25,-105.96 241.25,-108.92 238.29,-111.88 235.33,-111.88"/>
<text text-anchor="start" x="187.5" y="-99.33" font-family="Helvetica,sans-Serif" font-size="9.00">Directory.ts</text>
</a>
</g>
</g>
<!-- src/routes/index.ts&#45;&gt;src/routes/Directory.ts -->
<g id="edge10" class="edge">
<title>src/routes/index.ts&#45;&gt;src/routes/Directory.ts</title>
<path fill="none" stroke="#000000" stroke-width="2" stroke-opacity="0.200000" d="M156.93,-107C161.29,-106.67 165.88,-106.32 170.48,-105.97"/>
<polygon fill="#000000" fill-opacity="0.200000" stroke="#000000" stroke-width="2" stroke-opacity="0.200000" points="170.41,-107.85 176.23,-105.3 170.09,-103.66 170.41,-107.85"/>
</g>
<!-- src/routes/IndexRouter.ts -->
<g id="node11" class="node">
<title>src/routes/IndexRouter.ts</title>
<g id="a_node11"><a xlink:href="src/routes/IndexRouter.ts" xlink:title="IndexRouter.ts">
<path fill="#ddfeff" stroke="black" d="M242.08,-141.88C242.08,-141.88 178.67,-141.88 178.67,-141.88 175.71,-141.88 172.75,-138.92 172.75,-135.96 172.75,-135.96 172.75,-130.04 172.75,-130.04 172.75,-127.08 175.71,-124.12 178.67,-124.12 178.67,-124.12 242.08,-124.12 242.08,-124.12 245.04,-124.12 248,-127.08 248,-130.04 248,-130.04 248,-135.96 248,-135.96 248,-138.92 245.04,-141.88 242.08,-141.88"/>
<text text-anchor="start" x="180.75" y="-129.32" font-family="Helvetica,sans-Serif" font-size="9.00">IndexRouter.ts</text>
</a>
</g>
</g>
<!-- src/routes/index.ts&#45;&gt;src/routes/IndexRouter.ts -->
<g id="edge11" class="edge">
<title>src/routes/index.ts&#45;&gt;src/routes/IndexRouter.ts</title>
<path fill="none" stroke="#000000" stroke-width="2" stroke-opacity="0.200000" d="M156.93,-116.99C161.18,-118.29 165.66,-119.65 170.13,-121.02"/>
<polygon fill="#000000" fill-opacity="0.200000" stroke="#000000" stroke-width="2" stroke-opacity="0.200000" points="170.33,-123.89 176.68,-123.63 171.55,-119.87 170.33,-123.89"/>
</g>
<!-- src/routes/Url.ts -->
<g id="node12" class="node">
<title>src/routes/Url.ts</title>
<g id="a_node12"><a xlink:href="src/routes/Url.ts" xlink:title="Url.ts">
<path fill="#ddfeff" stroke="black" d="M231.46,-171.88C231.46,-171.88 189.29,-171.88 189.29,-171.88 186.33,-171.88 183.38,-168.92 183.38,-165.96 183.38,-165.96 183.38,-160.04 183.38,-160.04 183.38,-157.08 186.33,-154.12 189.29,-154.12 189.29,-154.12 231.46,-154.12 231.46,-154.12 234.42,-154.12 237.38,-157.08 237.38,-160.04 237.38,-160.04 237.38,-165.96 237.38,-165.96 237.38,-168.92 234.42,-171.88 231.46,-171.88"/>
<text text-anchor="start" x="199.88" y="-159.32" font-family="Helvetica,sans-Serif" font-size="9.00">Url.ts</text>
</a>
</g>
</g>
<!-- src/routes/index.ts&#45;&gt;src/routes/Url.ts -->
<g id="edge12" class="edge">
<title>src/routes/index.ts&#45;&gt;src/routes/Url.ts</title>
<path fill="none" stroke="#000000" stroke-width="2" stroke-opacity="0.200000" d="M137.93,-118.16C145.16,-126.86 157.04,-139.79 169.75,-148 171.41,-149.07 173.15,-150.08 174.95,-151.03"/>
<polygon fill="#000000" fill-opacity="0.200000" stroke="#000000" stroke-width="2" stroke-opacity="0.200000" points="174.71,-153.18 181.03,-153.83 176.49,-149.38 174.71,-153.18"/>
</g>
<!-- src/mockup.ts -->
<g id="node6" class="node">
<title>src/mockup.ts</title>
<g id="a_node6"><a xlink:href="src/mockup.ts" xlink:title="no&#45;orphans">
<path fill="#ccffcc" stroke="orange" d="M74.08,-93.88C74.08,-93.88 28.67,-93.88 28.67,-93.88 25.71,-93.88 22.75,-90.92 22.75,-87.96 22.75,-87.96 22.75,-82.04 22.75,-82.04 22.75,-79.08 25.71,-76.12 28.67,-76.12 28.67,-76.12 74.08,-76.12 74.08,-76.12 77.04,-76.12 80,-79.08 80,-82.04 80,-82.04 80,-87.96 80,-87.96 80,-90.92 77.04,-93.88 74.08,-93.88"/>
<text text-anchor="start" x="30.75" y="-81.33" font-family="Helvetica,sans-Serif" font-size="9.00" fill="orange">mockup.ts</text>
</a>
</g>
</g>
<!-- src/routes/utils.ts -->
<g id="node9" class="node">
<title>src/routes/utils.ts</title>
<g id="a_node9"><a xlink:href="src/routes/utils.ts" xlink:title="utils.ts">
<path fill="#ddfeff" stroke="black" d="M312.08,-111.88C312.08,-111.88 269.92,-111.88 269.92,-111.88 266.96,-111.88 264,-108.92 264,-105.96 264,-105.96 264,-100.04 264,-100.04 264,-97.08 266.96,-94.12 269.92,-94.12 269.92,-94.12 312.08,-94.12 312.08,-94.12 315.04,-94.12 318,-97.08 318,-100.04 318,-100.04 318,-105.96 318,-105.96 318,-108.92 315.04,-111.88 312.08,-111.88"/>
<text text-anchor="start" x="278.25" y="-99.33" font-family="Helvetica,sans-Serif" font-size="9.00">utils.ts</text>
</a>
</g>
</g>
<!-- src/routes/Channel.ts&#45;&gt;src/routes/utils.ts -->
<g id="edge4" class="edge">
<title>src/routes/Channel.ts&#45;&gt;src/routes/utils.ts</title>
<path fill="none" stroke="#000000" stroke-width="2" stroke-opacity="0.200000" d="M236.11,-82.34C241.05,-84.21 246.19,-86.16 251,-88 253.29,-88.87 255.65,-89.78 258.03,-90.69"/>
<polygon fill="#000000" fill-opacity="0.200000" stroke="#000000" stroke-width="2" stroke-opacity="0.200000" points="257.73,-92.59 264.08,-92.78 259.23,-88.67 257.73,-92.59"/>
</g>
<!-- src/routes/utils.ts&#45;&gt;src/complexUtils.ts -->
<g id="edge13" class="edge">
<title>src/routes/utils.ts&#45;&gt;src/complexUtils.ts</title>
<path fill="none" stroke="#000000" stroke-width="2" stroke-opacity="0.200000" d="M318.44,-94.68C321.12,-93.32 323.69,-91.77 326,-90 335.6,-82.65 331.81,-74.51 342,-68 349.1,-63.46 357.36,-60.34 365.68,-58.21"/>
<polygon fill="#000000" fill-opacity="0.200000" stroke="#000000" stroke-width="2" stroke-opacity="0.200000" points="366.9,-59.65 372.31,-56.33 366,-55.55 366.9,-59.65"/>
</g>
<!-- src/routes/Directory.ts&#45;&gt;src/routes/utils.ts -->
<g id="edge5" class="edge">
<title>src/routes/Directory.ts&#45;&gt;src/routes/utils.ts</title>
<path fill="none" stroke="#000000" stroke-width="2" stroke-opacity="0.200000" d="M241.55,-103C245.87,-103 250.34,-103 254.75,-103"/>
<polygon fill="#000000" fill-opacity="0.200000" stroke="#000000" stroke-width="2" stroke-opacity="0.200000" points="254.63,-105.1 260.63,-103 254.63,-100.9 254.63,-105.1"/>
</g>
<!-- src/routes/IndexRouter.ts&#45;&gt;src/routes/utils.ts -->
<g id="edge6" class="edge">
<title>src/routes/IndexRouter.ts&#45;&gt;src/routes/utils.ts</title>
<path fill="none" stroke="#000000" stroke-width="2" stroke-opacity="0.200000" d="M236.11,-123.66C241.05,-121.79 246.19,-119.84 251,-118 253.29,-117.13 255.65,-116.22 258.03,-115.31"/>
<polygon fill="#000000" fill-opacity="0.200000" stroke="#000000" stroke-width="2" stroke-opacity="0.200000" points="259.23,-117.33 264.08,-113.22 257.73,-113.41 259.23,-117.33"/>
</g>
<!-- src/routes/Url.ts&#45;&gt;src/routes/utils.ts -->
<g id="edge7" class="edge">
<title>src/routes/Url.ts&#45;&gt;src/routes/utils.ts</title>
<path fill="none" stroke="#000000" stroke-width="2" stroke-opacity="0.200000" d="M237.46,-155.24C242.18,-153.26 246.9,-150.86 251,-148 261.99,-140.33 271.86,-128.88 278.92,-119.45"/>
<polygon fill="#000000" fill-opacity="0.200000" stroke="#000000" stroke-width="2" stroke-opacity="0.200000" points="281.37,-120.24 283.15,-114.13 277.95,-117.79 281.37,-120.24"/>
</g>
<!-- src/scrapeUtils.ts -->
<g id="node13" class="node">
<title>src/scrapeUtils.ts</title>
<g id="a_node13"><a xlink:href="src/scrapeUtils.ts" xlink:title="no&#45;orphans">
<path fill="#ccffcc" stroke="orange" d="M80.83,-63.88C80.83,-63.88 21.92,-63.88 21.92,-63.88 18.96,-63.88 16,-60.92 16,-57.96 16,-57.96 16,-52.04 16,-52.04 16,-49.08 18.96,-46.12 21.92,-46.12 21.92,-46.12 80.83,-46.12 80.83,-46.12 83.79,-46.12 86.75,-49.08 86.75,-52.04 86.75,-52.04 86.75,-57.96 86.75,-57.96 86.75,-60.92 83.79,-63.88 80.83,-63.88"/>
<text text-anchor="start" x="24" y="-51.33" font-family="Helvetica,sans-Serif" font-size="9.00" fill="orange">scrapeUtils.ts</text>
</a>
</g>
</g>
<!-- src/test.ts -->
<g id="node14" class="node">
<title>src/test.ts</title>
<g id="a_node14"><a xlink:href="src/test.ts" xlink:title="no&#45;orphans">
<path fill="#ccffcc" stroke="orange" d="M72.46,-33.88C72.46,-33.88 30.29,-33.88 30.29,-33.88 27.33,-33.88 24.38,-30.92 24.38,-27.96 24.38,-27.96 24.38,-22.04 24.38,-22.04 24.38,-19.08 27.33,-16.12 30.29,-16.12 30.29,-16.12 72.46,-16.12 72.46,-16.12 75.42,-16.12 78.38,-19.08 78.38,-22.04 78.38,-22.04 78.38,-27.96 78.38,-27.96 78.38,-30.92 75.42,-33.88 72.46,-33.88"/>
<text text-anchor="start" x="39.75" y="-21.32" font-family="Helvetica,sans-Serif" font-size="9.00" fill="orange">test.ts</text>
</a>
</g>
</g>
<!-- src/types/express&#45;serve&#45;static&#45;core/index.d.ts -->
<g id="node15" class="node">
<title>src/types/express&#45;serve&#45;static&#45;core/index.d.ts</title>
<g id="a_node15"><a xlink:href="src/types/express-serve-static-core/index.d.ts" xlink:title="index.d.ts">
<path fill="#ddfeff" stroke="black" d="M435.08,-130.88C435.08,-130.88 391.92,-130.88 391.92,-130.88 388.96,-130.88 386,-127.92 386,-124.96 386,-124.96 386,-119.04 386,-119.04 386,-116.08 388.96,-113.12 391.92,-113.12 391.92,-113.12 435.08,-113.12 435.08,-113.12 438.04,-113.12 441,-116.08 441,-119.04 441,-119.04 441,-124.96 441,-124.96 441,-127.92 438.04,-130.88 435.08,-130.88"/>
<text text-anchor="start" x="394" y="-118.33" font-family="Helvetica,sans-Serif" font-size="9.00">index.d.ts</text>
</a>
</g>
</g>
<!-- src/types/express&#45;serve&#45;static&#45;core/index.d.ts&#45;&gt;src/ServerStatusManager.ts -->
<g id="edge14" class="edge">
<title>src/types/express&#45;serve&#45;static&#45;core/index.d.ts&#45;&gt;src/ServerStatusManager.ts</title>
<path fill="none" stroke="#000000" stroke-width="2" stroke-opacity="0.200000" d="M441.18,-120.14C455.01,-118.45 471.91,-115.2 486,-109 507.89,-99.36 529.23,-81.85 543,-69.18"/>
<polygon fill="#000000" fill-opacity="0.200000" stroke="#000000" stroke-width="2" stroke-opacity="0.200000" points="544.56,-70.7 547.47,-65.05 541.67,-67.65 544.56,-70.7"/>
</g>
<!-- src/types/types.d.ts -->
<g id="node16" class="node">
<title>src/types/types.d.ts</title>
<g id="a_node16"><a xlink:href="src/types/types.d.ts" xlink:title="types.d.ts">
<path fill="#ccffcc" stroke="black" d="M434.71,-96.88C434.71,-96.88 392.29,-96.88 392.29,-96.88 389.33,-96.88 386.38,-93.92 386.38,-90.96 386.38,-90.96 386.38,-85.04 386.38,-85.04 386.38,-82.08 389.33,-79.12 392.29,-79.12 392.29,-79.12 434.71,-79.12 434.71,-79.12 437.67,-79.12 440.62,-82.08 440.62,-85.04 440.62,-85.04 440.62,-90.96 440.62,-90.96 440.62,-93.92 437.67,-96.88 434.71,-96.88"/>
<text text-anchor="start" x="394.38" y="-84.33" font-family="Helvetica,sans-Serif" font-size="9.00">types.d.ts</text>
</a>
</g>
</g>
</g>
</svg>
